<svg width="217" height="210" viewBox="0 0 217 210" fill="none" xmlns="http://www.w3.org/2000/svg">
<path d="M80.9705 50.3999V70.6999L215.371 51.7999V32.8999L80.9705 50.3999Z" fill="#BDFF32" stroke="#0D0D0D"/>
<path d="M1.87051 14L80.2705 49.7V71.4L1.87051 31.5V14Z" fill="#BDFF32" stroke="#0D0D0D"/>
<path d="M213.205 54.3609C213.031 58.8395 212.951 63.0853 212.964 67.0982C213.081 104.059 213.04 136.267 212.84 163.722C212.809 167.935 212.807 171.811 212.833 175.349C212.836 175.438 212.807 175.526 212.753 175.597C212.698 175.668 212.62 175.719 212.533 175.741C195.746 180.046 178.965 184.433 162.191 188.903C158.152 189.978 153.938 191.066 149.551 192.167C136.331 195.477 122.947 199.238 109.563 202.554C100.227 204.865 90.9155 207.276 81.6274 209.788C80.3434 210.132 79.1704 210.058 78.1085 209.566C77.9866 209.509 77.0726 208.874 75.3664 207.659C69.8258 203.734 64.3091 199.736 58.8164 195.666C50.8188 189.751 41.8615 183.595 34.1251 177.38C25.4377 170.403 16.9005 163.563 8.51335 156.86C7.13799 155.759 5.70385 154.743 4.21097 153.811C4.07153 153.726 3.95635 153.605 3.87637 153.461C3.79639 153.317 3.75424 153.154 3.75396 152.989L3.7801 34.7097C3.78024 34.5631 3.73852 34.4195 3.65988 34.2957C3.58124 34.172 3.46896 34.0733 3.33616 34.0111L0.887923 32.8295C0.651223 32.7159 0.451087 32.5383 0.310293 32.3167C0.169498 32.0951 0.0936682 31.8385 0.0914103 31.576L0 12.9498C0 12.7365 0.106628 12.6081 0.319896 12.5646C5.69513 11.5331 10.5133 10.8236 14.7743 10.4363C28.5149 9.19149 42.3185 7.88359 56.1853 6.51258C60.7162 6.06863 64.9968 5.68127 69.0272 5.35048C89.2224 3.70092 109.333 1.92295 129.358 0.0165969C129.904 -0.0350103 130.455 0.0340856 130.971 0.218984C144.65 5.14157 157.93 10.0359 170.808 14.9019C181.222 18.8386 192.157 22.6317 202.355 26.7905C204.984 27.8612 208.766 29.2344 213.701 30.91C214.544 31.1973 215.288 31.3213 216.169 31.4258C216.487 31.4606 216.644 31.6369 216.639 31.9546L216.528 52.2978C216.527 52.6234 216.398 52.9353 216.169 53.1661C215.941 53.397 215.631 53.5283 215.308 53.5317C214.733 53.5404 214.169 53.6362 213.617 53.819C213.355 53.906 213.218 54.0867 213.205 54.3609ZM108.029 6.22532C109.809 7.20026 112.373 8.28836 115.72 9.48963C142.422 19.0649 164.569 26.8906 182.162 32.9666C184.244 33.6847 186.255 34.6771 188.521 34.3441C194.631 33.4497 200.984 32.3855 207.023 31.8697C207.454 31.8306 207.46 31.7566 207.042 31.6478C201.402 30.1397 196.081 27.6066 190.544 25.5631C171.054 18.3555 151.146 10.9782 130.821 3.43107C130.026 3.13465 129.173 3.02302 128.327 3.10464L105.94 5.32437C105.518 5.36354 105.516 5.4223 105.933 5.50064C106.704 5.64427 107.337 5.84666 108.029 6.22532ZM114.479 10.2143C111.424 9.10444 108.362 7.84442 105.411 6.39506C104.61 6.00334 103.746 5.83142 102.819 5.8793C94.4322 6.30584 86.0712 6.99787 77.7363 7.9554C75.7255 8.18608 73.6516 8.3123 71.5146 8.33406C71.236 8.33406 71.2055 8.42329 71.4232 8.60174C72.0281 9.09791 72.829 9.53751 73.8257 9.92052C83.5142 13.6462 93.2549 17.2369 103.048 20.6927C106.686 21.9767 110.773 23.4718 115.309 25.1779C127.983 29.9482 140.801 34.3006 153.762 38.2352C154.437 38.4397 155.087 38.4985 155.714 38.4114C163.657 37.319 171.705 36.2396 179.857 35.1732C180.673 35.0688 181.581 35.1928 182.338 35.0884C183.526 34.9273 183.548 34.6488 182.403 34.2527C159.718 26.4619 137.077 18.4491 114.479 10.2143ZM78.0105 12.7082C75.0726 11.5788 72.187 10.2143 69.2165 9.05221C67.7214 8.47116 66.0436 8.69967 64.4898 8.87594C54.7969 9.99451 45.683 10.8933 37.1479 11.5723C36.1947 11.6463 36.149 11.8922 37.0108 12.31C41.6679 14.582 46.634 16.7059 51.9091 18.6819C71.0989 25.8808 88.2104 32.1766 103.244 37.5692C107.755 39.1818 112.416 40.5724 116.875 42.296C117.887 42.6877 117.998 43.2883 119.291 43.0794C125.276 42.1306 133.147 41.16 142.905 40.1676C146.004 39.8543 149.092 39.6562 152.169 39.5735C152.6 39.5605 152.652 39.4147 152.326 39.1361C152.174 39.0012 151.999 38.9054 151.804 38.8489C145.175 36.9468 137.558 34.4812 128.953 31.4519C112.54 25.6676 95.5595 19.4197 78.0105 12.7082ZM40.6799 15.3393C38.6516 14.4993 36.8737 13.4938 35.346 12.323C35.1762 12.1881 34.9825 12.1141 34.7649 12.1011C33.3112 11.9966 32.0099 11.9988 30.8608 12.1076C22.8001 12.8867 14.9875 13.6114 7.42304 14.2816C7.07485 14.3121 7.05528 14.4057 7.36431 14.5624C11.3119 16.5949 15.919 18.8103 21.1854 21.2085C39.9617 29.7436 58.4442 38.0632 76.633 46.1674C78.0258 46.7898 79.5274 47.3143 81.1378 47.7408C82.2737 48.0411 83.4619 47.6298 84.6044 47.4927C95.072 46.2044 105.328 44.9531 115.374 43.7388C116.362 43.6213 116.379 43.4145 115.426 43.1186C111.67 41.9652 107.801 40.6703 103.818 39.234C87.3617 33.3017 70.6637 27.0843 53.7241 20.5818C50.6121 19.3892 46.264 17.6417 40.6799 15.3393ZM78.9833 50.7375C57.5237 41.2057 37.2197 32.046 14.6045 21.548C10.6286 19.7004 6.88771 17.6374 3.03583 15.7832C2.77468 15.657 2.64627 15.7375 2.65062 16.0248L2.7551 30.094C2.75945 30.3812 2.88783 30.5923 3.14027 30.7272C16.5501 38.1176 30.3559 45.3252 44.5579 52.35C48.5795 54.3391 52.4488 56.3086 56.1658 58.2584C63.4256 62.0625 70.9226 65.8752 78.6569 69.6966C78.9006 69.8185 79.0247 69.7445 79.029 69.4746L79.2379 51.1292C79.2402 51.0465 79.2171 50.9649 79.1717 50.895C79.1263 50.8251 79.0606 50.7702 78.9833 50.7375ZM149.44 47.9628C149.627 48.2065 149.69 48.5025 149.63 48.8507C149.606 48.9772 149.619 49.1077 149.666 49.2267C149.714 49.3458 149.794 49.4486 149.897 49.5231L151.223 50.4567C151.276 50.4954 151.338 50.5215 151.403 50.5332C151.468 50.5449 151.535 50.5419 151.599 50.5243C151.663 50.5068 151.722 50.4752 151.772 50.4319C151.822 50.3886 151.862 50.3346 151.888 50.2739C152.067 49.8605 152.363 49.6211 152.776 49.5558C153.068 49.5166 153.203 49.6407 153.181 49.9279C153.155 50.3588 152.981 50.7353 152.659 51.0574C152.59 51.1305 152.547 51.2238 152.536 51.323C152.526 51.4221 152.548 51.5215 152.6 51.6058C154.356 54.387 156.328 55.425 155.101 59.29C155.086 59.3389 155.084 59.3907 155.094 59.4407C155.105 59.4906 155.128 59.5371 155.161 59.576C155.194 59.6149 155.236 59.645 155.284 59.6634C155.331 59.6819 155.383 59.6881 155.433 59.6817C171.381 57.4663 186.277 55.3249 200.122 53.2575C204.779 52.5611 209.277 51.9779 213.617 51.5078C213.714 51.4966 213.804 51.4504 213.869 51.3781C213.934 51.3059 213.97 51.2126 213.969 51.1161L214.034 33.985C214.034 33.949 214.025 33.9135 214.009 33.8815C213.992 33.8495 213.969 33.8219 213.94 33.8009C213.912 33.7799 213.879 33.7661 213.844 33.7606C213.809 33.7552 213.774 33.7583 213.741 33.7696C212.774 34.0895 211.795 34.429 210.783 34.5465C198.949 35.9697 186.962 37.4256 174.824 38.9141C168.913 39.6366 162.63 40.4962 155.975 41.4929C151.693 42.1327 147.371 42.7116 143.01 43.2296C122.71 45.6364 102.613 48.113 82.7177 50.6591C82.4301 50.6954 82.1653 50.8349 81.9721 51.0521C81.7789 51.2693 81.6704 51.5494 81.6666 51.8408L81.4642 69.8729C81.4642 70.0818 81.5643 70.1623 81.7645 70.1144C82.4826 69.9403 83.1747 69.801 83.8406 69.6966C99.9184 67.1156 120.41 64.2256 145.314 61.0266C145.51 61.0048 145.704 60.9874 145.895 60.9743C148.18 60.8242 147.965 55.4707 147.73 53.7406C147.715 53.6241 147.664 53.515 147.585 53.4285C147.505 53.342 147.401 53.2822 147.286 53.2575C146.189 53.0268 145.765 52.2717 146.013 50.9921C146.056 50.7571 146.163 50.5568 146.333 50.3915L148.859 47.9171C148.899 47.8788 148.947 47.8493 149 47.8307C149.052 47.812 149.107 47.8046 149.162 47.8089C149.217 47.8132 149.27 47.8292 149.318 47.8557C149.366 47.8823 149.408 47.9188 149.44 47.9628ZM34.8106 85.2543C35.0369 85.633 35.1501 86.0443 35.1501 86.4882C35.2067 112.52 35.2263 138.615 35.2089 164.773C35.2089 167.506 35.0935 169.994 34.8629 172.235C34.8411 172.479 34.9282 172.673 35.124 172.816C38.5973 175.33 41.6592 178.176 45.1912 180.84C50.0484 184.509 54.7708 188.124 59.3583 191.684C63.3146 194.752 67.7084 197.651 71.6516 200.915C71.6741 200.935 71.7018 200.947 71.7312 200.951C71.7607 200.955 71.7905 200.949 71.8171 200.936C71.8436 200.923 71.8657 200.902 71.8804 200.876C71.8951 200.851 71.9018 200.821 71.8997 200.791C71.8083 197.84 71.7648 194.896 71.7691 191.958C71.7909 154.41 71.8432 117.958 71.9259 82.6037C71.9302 81.6113 71.9781 80.6429 72.0695 79.6984C72.0843 79.5526 72.1531 79.4177 72.2621 79.3208C72.371 79.2239 72.5121 79.1723 72.6571 79.1761L72.8921 79.1827C73.4187 79.1957 73.7016 79.4656 73.7408 79.9922C73.8583 81.5635 73.9171 83.25 73.9171 85.0519C73.9606 121.926 73.9084 158.662 73.7604 195.262C73.7539 197.383 73.6037 199.46 73.6625 201.575C73.6668 201.775 73.7452 201.938 73.8975 202.064C75.4121 203.34 76.9224 204.569 78.4284 205.753C78.8723 206.101 79.3576 206.367 79.8843 206.55C79.9481 206.571 80.016 206.577 80.0826 206.568C80.1492 206.558 80.2128 206.534 80.2684 206.496C80.324 206.458 80.3701 206.408 80.4031 206.349C80.4361 206.29 80.4551 206.225 80.4587 206.158C80.5197 204.691 80.5545 203.274 80.5632 201.908C80.82 163.855 80.8919 123.597 80.7787 81.1347C80.77 78.4754 80.7003 75.9662 80.5698 73.6072C80.5567 73.3896 80.4479 73.2395 80.2433 73.1568C77.6275 72.0991 75.0052 70.9305 72.3764 69.6509C58.8229 63.0613 46.61 56.9353 35.7377 51.2728C25.9578 46.174 16.4326 41.4864 7.20109 36.3092C7.05311 36.2222 6.9791 36.2657 6.9791 36.4398L7.02481 151.22C7.02481 151.537 7.17278 151.751 7.46875 151.859C8.51985 152.251 9.32941 152.591 10.2042 153.315C15.388 157.628 21.464 162.392 28.4322 167.606C30.0121 168.786 31.6138 170.124 33.2372 171.621C34.0468 172.37 34.1926 172.257 33.6746 171.282C33.4962 170.947 33.4091 170.59 33.4135 170.211C33.5179 140.049 33.5637 111.678 33.5506 85.0976C33.5506 84.8191 33.6899 84.695 33.9684 84.7255C34.3471 84.769 34.6278 84.9453 34.8106 85.2543ZM150.047 52.9703C150.352 54.5371 150.409 56.1497 150.217 57.808C150.134 58.5218 150.187 59.2377 150.374 59.9559C150.414 60.1085 150.495 60.2473 150.608 60.3576C150.721 60.4678 150.862 60.5453 151.015 60.5815C151.168 60.6178 151.328 60.6115 151.477 60.5634C151.627 60.5153 151.76 60.4271 151.862 60.3084C152.776 59.2639 153.214 58.0147 153.175 56.561C153.166 56.3129 153.077 56.0975 152.907 55.9147L150.119 52.9376C150.117 52.9329 150.114 52.9286 150.11 52.9251C150.106 52.9216 150.102 52.9188 150.097 52.917C150.087 52.9133 150.076 52.9137 150.067 52.918C150.057 52.9224 150.05 52.9303 150.046 52.9401C150.043 52.9499 150.043 52.9607 150.047 52.9703ZM155.029 62.946C155.218 66.7 153.677 72.1514 148.716 70.7673C147.527 70.4278 146.581 69.331 146.705 68.0383C146.827 66.7674 146.953 65.4552 147.083 64.1016C147.114 63.8187 146.988 63.6903 146.705 63.7164C143.519 64.0297 140.383 64.391 137.297 64.8001C126.046 66.2843 114.699 67.812 103.257 69.3832C96.8587 70.258 90.65 71.4724 84.1213 72.1383C84.0251 72.1494 83.9361 72.1946 83.8712 72.2655C83.8063 72.3364 83.7699 72.4281 83.7688 72.5235C83.6991 75.2916 83.6621 78.1076 83.6578 80.9715C83.5969 120.827 83.5729 162.366 83.586 205.59C83.586 205.707 83.6426 205.751 83.7557 205.72C122.797 195.701 161.827 185.523 200.847 175.186C203.758 174.416 206.651 173.835 209.523 173.443C209.745 173.412 209.858 173.284 209.863 173.058C210.015 149.285 210.056 126.696 209.987 105.291C209.934 88.0681 210.011 71.3592 210.215 55.1639C210.219 54.7678 210.026 54.5959 209.634 54.6481C191.628 57.0245 173.574 59.6099 155.473 62.4041C155.159 62.452 155.011 62.6326 155.029 62.946ZM152.43 62.6196L151.373 68.1167C151.37 68.1295 151.37 68.1429 151.372 68.1558C151.374 68.1688 151.379 68.1811 151.387 68.1921C151.394 68.2031 151.404 68.2125 151.415 68.2197C151.426 68.2269 151.438 68.2318 151.451 68.2342L151.477 68.2407C151.805 68.3035 152.175 68.076 152.506 67.6083C152.837 67.1406 153.101 66.471 153.24 65.7468L153.279 65.5117C153.417 64.7907 153.421 64.0745 153.289 63.5192C153.157 62.964 152.9 62.6147 152.574 62.5477L152.548 62.5412C152.535 62.5384 152.522 62.5382 152.509 62.5406C152.496 62.543 152.483 62.548 152.472 62.5554C152.461 62.5627 152.452 62.5721 152.445 62.5832C152.438 62.5942 152.433 62.6066 152.43 62.6196ZM150.374 68.4692C149.421 67.1308 149.734 65.4987 149.571 63.9449C149.527 63.527 149.447 63.5183 149.329 63.9188C148.959 65.1505 148.816 66.3866 148.898 67.627C148.944 68.2864 149.656 68.7434 150.276 68.6847C150.3 68.6822 150.322 68.6735 150.342 68.6596C150.361 68.6456 150.377 68.6268 150.387 68.605C150.396 68.5832 150.401 68.5592 150.398 68.5354C150.396 68.5116 150.388 68.4888 150.374 68.4692Z" fill="#0D0D0D"/>
<path d="M12.6791 47.9234H11.8174C11.6948 47.9234 11.5954 48.0228 11.5954 48.1454V151.023C11.5954 151.146 11.6948 151.245 11.8174 151.245H12.6791C12.8017 151.245 12.9011 151.146 12.9011 151.023V48.1454C12.9011 48.0228 12.8017 47.9234 12.6791 47.9234Z" fill="#0D0D0D"/>
<path d="M30.4889 58.6762L50.2315 69.4419C50.3327 69.4964 50.4173 69.5775 50.4759 69.6764C50.5346 69.7753 50.5652 69.8884 50.5645 70.0034L50.4208 87.9767C50.4194 88.0868 50.3892 88.1946 50.3333 88.2895C50.2775 88.3845 50.1978 88.4632 50.1022 88.5179C50.0066 88.5726 49.8984 88.6014 49.7883 88.6015C49.6781 88.6017 49.5699 88.5731 49.4742 88.5185L29.712 77.1849C29.6154 77.1283 29.5355 77.0472 29.4804 76.9497C29.4254 76.8522 29.3972 76.7419 29.3987 76.6299L29.5554 59.2311C29.5558 59.1218 29.5846 59.0144 29.6388 58.9195C29.6931 58.8245 29.7711 58.7453 29.8651 58.6894C29.9591 58.6335 30.0659 58.6029 30.1753 58.6006C30.2846 58.5983 30.3927 58.6243 30.4889 58.6762ZM32.2778 75.2328C33.0743 75.5658 34.0405 75.7812 34.7783 76.2447C39.4049 79.1217 43.8509 81.9007 48.1162 84.5818C48.36 84.7341 48.4818 84.6667 48.4818 84.3794L48.521 72.3406C48.5227 72.1668 48.4752 71.9961 48.3839 71.8483C48.2926 71.7004 48.1613 71.5814 48.0053 71.505C42.2253 68.7063 36.9066 65.8338 32.0493 62.8872C31.8534 62.7697 31.7577 62.8262 31.762 63.0569L31.9514 74.7497C31.9557 74.9803 32.0645 75.1414 32.2778 75.2328Z" fill="#0D0D0D"/>
<path d="M202.437 64.8132L202.215 64.8128C201.837 64.8122 201.529 65.1185 201.529 65.4971L201.354 165.75C201.353 166.129 201.659 166.437 202.038 166.437L202.26 166.438C202.638 166.438 202.946 166.132 202.947 165.753L203.121 65.4999C203.122 65.1213 202.816 64.8139 202.437 64.8132Z" fill="#0D0D0D"/>
<path d="M131.944 79.3979L168.543 74.0836C168.592 74.0761 168.642 74.0793 168.69 74.0929C168.738 74.1064 168.782 74.1301 168.82 74.1623C168.858 74.1945 168.888 74.2345 168.909 74.2795C168.93 74.3245 168.941 74.3735 168.941 74.4231L168.896 93.108C168.895 93.1893 168.866 93.2679 168.814 93.33C168.761 93.3921 168.688 93.4337 168.608 93.4475L131.904 100.022C131.854 100.032 131.802 100.03 131.752 100.017C131.702 100.004 131.656 99.98 131.616 99.9468C131.577 99.9137 131.545 99.8721 131.524 99.8252C131.503 99.7784 131.492 99.7273 131.493 99.6758L131.65 79.7439C131.649 79.6605 131.678 79.5796 131.732 79.516C131.786 79.4524 131.861 79.4105 131.944 79.3979ZM134.477 81.807C134.363 81.8227 134.259 81.8789 134.183 81.9652C134.108 82.0516 134.066 82.1623 134.065 82.277L134.085 96.6008C134.086 96.6702 134.102 96.7384 134.132 96.801C134.161 96.8635 134.205 96.9188 134.258 96.9629C134.312 97.007 134.374 97.039 134.441 97.0565C134.508 97.074 134.578 97.0767 134.646 97.0644L165.788 91.404C165.897 91.3843 165.996 91.3273 166.067 91.2427C166.139 91.1581 166.178 91.0513 166.18 90.9405L166.271 77.707C166.272 77.6385 166.258 77.5707 166.23 77.5082C166.202 77.4456 166.161 77.3899 166.109 77.3446C166.058 77.2994 165.997 77.2658 165.932 77.2461C165.866 77.2264 165.797 77.221 165.729 77.2304L134.477 81.807Z" fill="#0D0D0D"/>
<path d="M97.2307 81.2786L96.8781 81.278C96.5644 81.2774 96.3097 81.5313 96.3091 81.845L96.1163 192.309C96.1158 192.623 96.3697 192.878 96.6833 192.878L97.0359 192.879C97.3496 192.879 97.6043 192.625 97.6049 192.312L97.7977 81.8476C97.7982 81.5339 97.5444 81.2791 97.2307 81.2786Z" fill="#0D0D0D"/>
<path d="M46.1057 179.691C46.1009 179.735 46.0871 179.779 46.0651 179.818C46.0431 179.858 46.0133 179.892 45.9775 179.92C45.9416 179.948 45.9005 179.969 45.8563 179.981C45.8122 179.993 45.766 179.997 45.7205 179.991L45.5116 179.965C45.1677 179.926 44.9849 179.732 44.9632 179.384C44.813 176.955 45.0937 174.592 45.1003 172.202C45.1656 144.295 45.2635 117.46 45.3941 91.6979C45.3984 91.1713 45.566 90.6816 45.8968 90.229C46.023 90.0592 46.2254 90.007 46.5039 90.0723C46.6043 90.0959 46.6938 90.1532 46.7578 90.235C46.8218 90.3168 46.8566 90.4182 46.8565 90.5228C46.8434 122.683 46.7759 149.855 46.6541 172.039C46.641 174.403 46.4582 176.953 46.1057 179.691Z" fill="#0D0D0D"/>
<path d="M150.99 108.158L150.651 108.157C150.344 108.156 150.095 108.403 150.094 108.71L149.846 179.832C149.844 180.138 150.092 180.388 150.399 180.389L150.738 180.39C151.044 180.391 151.294 180.144 151.295 179.837L151.543 108.715C151.544 108.408 151.297 108.159 150.99 108.158Z" fill="#0D0D0D"/>
</svg>
