<svg width="210" height="207" viewBox="0 0 210 207" fill="none" xmlns="http://www.w3.org/2000/svg">
<path d="M207.172 118.593L115.665 168.373V203.511L205.708 153L207.172 118.593Z" fill="#BDFF32" stroke="#0D0D0D"/>
<path d="M130.452 2.44193C133.327 2.0815 135.659 -0.660895 138.67 0.148765C144.529 1.30841 150.367 2.57775 156.241 3.6747C167.975 6.22905 179.75 8.8931 191.75 9.79678C191.489 18.6299 191.593 27.4683 191.28 36.2962C188.985 37.0327 186.757 37.9834 184.608 39.0595C183.491 38.0095 181.994 37.8319 180.538 37.7066C180.47 39.7072 180.465 41.7131 180.418 43.7137C186.814 45.0614 193.112 46.874 199.404 48.6343C202.931 49.538 206.285 51.2305 210 51.22C209.499 68.8236 209.082 86.4324 208.685 104.041C208.565 118.516 208.038 132.985 207.845 147.465C207.767 149.361 207.673 151.268 207.882 153.164C208.221 154.031 207.297 154.376 206.75 154.752C184.357 167.639 161.453 179.611 138.91 192.237C133.938 194.875 129.221 197.957 124.301 200.689C120.988 202.506 117.915 204.758 114.42 206.231C109.552 203.854 104.324 202.324 99.3888 200.093C91.229 196.907 83.3197 193.135 75.2173 189.813C66.5983 186.209 58.089 182.354 49.4075 178.911C41.9259 175.553 34.2878 172.57 26.8011 169.237C17.9996 165.476 9.28151 161.491 0.250428 158.309C0.0730414 147.883 0.0782589 137.457 0 127.03C2.47298 126.9 4.71119 125.735 7.04852 125.03C11.9841 122.825 17.1074 120.981 21.7403 118.145C20.869 117.388 19.7578 117.351 18.6621 117.335C17.9422 113.971 18.4743 110.524 18.8708 107.16C19.6639 101.032 21.9438 95.2447 24.2446 89.5561C26.8898 82.3476 30.2392 75.4263 33.6409 68.552C38.7121 58.7525 44.4928 49.1881 51.9796 41.0288C55.5117 37.4088 59.0803 33.7471 63.3584 30.9942C65.6019 29.5995 67.9287 27.9959 70.6522 27.8444C70.8974 26.8205 70.84 25.546 71.7687 24.8617C73.0364 24.2871 74.4242 24.0677 75.7651 23.7438C80.8258 22.7096 85.8292 21.4245 90.8638 20.2754C91.9334 19.9672 93.0394 20.056 94.0777 20.4373C104.846 22.7775 115.573 25.3266 126.362 27.5727C128.058 27.7765 129.727 28.8786 131.444 28.3406C131.798 28.419 132.153 28.4399 132.518 28.4033C132.826 28.863 133.129 29.4167 133.739 29.495C138.19 30.78 142.734 31.6681 147.278 32.5247C155.751 34.0814 164.166 36.082 172.728 37.1006C173.083 36.5887 173.437 36.0768 173.792 35.5649C171.481 34.7395 169.024 34.494 166.613 34.1284C157.3 32.7284 148.092 30.7121 138.826 29.0615C136.212 28.6488 133.63 27.6877 130.953 28.1003C130.228 19.5649 131.23 10.9669 130.452 2.44193ZM132.931 3.43442C132.91 3.6747 132.873 4.14483 132.852 4.37989C136.484 4.72987 140.052 5.54476 143.652 6.10368C150.784 7.33646 158.026 7.95807 165.053 9.72887C171.804 11.0243 178.587 12.3825 185.463 12.7899C185.301 20.6567 185.228 28.5234 185.182 36.3954C186.371 36.129 187.566 35.8731 188.766 35.6119C189.194 27.5623 189.011 19.497 189.277 11.4422C187.811 11.8183 186.282 11.975 184.79 11.6407C175.926 10.1886 167.072 8.64236 158.307 6.67828C151.155 5.05374 143.809 4.23363 136.802 2.00315C135.524 2.51506 134.224 2.97474 132.931 3.43442ZM133.014 5.34626C133.019 8.29238 133.244 11.2333 133.233 14.1846C133.275 18.1911 132.967 22.2081 133.306 26.2094C140.903 27.5309 148.515 28.7742 156.074 30.2838C162.481 31.783 169.018 32.577 175.493 33.7157C178.347 34.1545 181.065 35.241 183.95 35.5596C183.799 28.163 183.945 20.7664 184.034 13.3697C180.82 13.1399 177.606 12.6541 174.382 12.8056C176.568 13.3593 178.963 13.3175 180.982 14.4406C181.034 17.6583 181.733 20.897 181.091 24.0938C180.648 26.3922 181.102 28.7794 180.502 31.0464C177.658 31.0099 174.862 30.2472 172.034 29.9547C168.716 29.4271 165.314 29.3697 162.053 28.5078C161.464 28.3876 160.989 27.9227 160.89 27.3272C160.332 25.3109 160.52 23.1901 160.561 21.1216C160.311 20.991 159.81 20.7194 159.565 20.5888C159.033 18.1546 158.584 15.3181 159.669 12.9936C161.662 13.8399 163.869 13.8503 165.956 14.357C170.61 15.4069 175.342 16.0547 180.037 16.9009C180.402 15.6942 180.063 14.9629 179.03 14.7018C172.702 12.8056 166.065 12.2101 159.711 10.4079C150.841 8.60057 141.779 7.66032 133.014 5.34626ZM160.436 14.4092C160.342 16.1121 160.399 17.8255 160.65 19.5127C164.798 20.1813 168.909 21.0798 173.077 21.6544C174.152 21.8111 175.373 21.7745 176.156 22.673C177.585 22.9916 179.015 23.2789 180.46 23.5297C180.611 21.6909 180.59 19.8366 180.345 18.0083C173.636 17.2509 167.046 15.7517 160.436 14.4092ZM161.599 21.1425C161.704 23.4409 162.085 25.7184 162.33 28.0063C164.26 26.8467 166.54 28.2152 168.596 28.3667C172.206 28.7585 175.811 29.2286 179.411 29.7144C179.416 29.1294 179.427 28.5391 179.443 27.9541C179.02 28.1055 178.592 28.2466 178.164 28.372C174.59 28.466 170.902 28.6749 167.49 27.4213C166.311 26.8937 166.613 25.2639 167.318 24.449C168.611 24.9191 169.947 25.2691 171.277 25.6504C171.168 25.9064 170.949 26.4288 170.839 26.6847C171.351 26.1415 171.909 25.0915 172.822 25.6661C174.903 26.434 177.126 26.6011 179.27 27.1287C179.26 26.2459 179.249 25.3579 179.244 24.4699C176.683 23.4879 173.881 23.6498 171.225 23.1118C168.011 22.4693 164.829 21.6857 161.599 21.1425ZM74.6903 25.6348C83.5805 27.9541 92.4551 30.3674 101.335 32.7441C106.891 34.1388 112.495 35.3664 118.02 36.8864C135.701 41.3892 153.403 45.8293 171.048 50.4626C171.137 46.8113 171.351 43.16 171.465 39.5035C166.869 38.5162 162.205 37.8528 157.613 36.829C149.318 34.9903 140.882 33.7732 132.712 31.3964C125.83 29.0667 118.547 28.3772 111.509 26.6638C104.982 25.3109 98.528 23.6394 91.9855 22.3648C86.2309 23.4983 80.6328 25.7288 74.6903 25.6348ZM73.6104 27.907C84.191 30.9524 94.9907 33.1725 105.55 36.3066C112.176 38.2446 118.901 39.8064 125.579 41.5616C136.28 44.5181 146.981 47.5008 157.723 50.3059C163.431 51.8782 169.06 53.8945 174.924 54.8191C179.422 54.396 184.06 54.1505 188.447 55.5138C192.548 56.7518 196.576 54.7617 200.546 53.9833C202.242 53.4296 203.979 53.0274 205.701 52.5625C201.788 51.8208 197.99 50.6141 194.166 49.5328C189.674 48.1694 185.041 47.3493 180.512 46.1584C180.47 47.8769 180.439 49.6007 180.481 51.3193C179.145 52.62 177.658 54.8296 175.514 54.14C162.831 50.1283 149.981 46.7068 137.125 43.3063C124.635 39.6341 111.884 36.9909 99.3262 33.5851C91.276 31.6001 83.2675 29.4689 75.2642 27.3168C74.5912 26.8832 74.0382 27.4839 73.6104 27.907ZM61.4802 35.382C53.7535 41.29 48.0771 49.3343 42.8755 57.4414C37.6165 65.935 33.3227 74.9666 29.0236 83.9669C26.6863 90.1151 24.0255 96.164 22.2777 102.521C21.229 107.16 20.6082 111.934 20.9473 116.698C22.3977 116.776 23.9003 116.484 25.2985 116.985C29.8114 118.364 34.2409 119.994 38.7017 121.514C51.2127 126.106 63.8697 130.295 76.3703 134.908C83.9823 137.613 91.6621 140.126 99.2949 142.764C109.223 146.253 119.084 149.92 128.934 153.613C132.216 150.416 135.967 147.711 138.92 144.179C141.028 141.62 143.256 139.144 145.118 136.396C148.316 131.455 150.763 126.074 154.034 121.18C158.078 115.157 161.532 108.779 164.902 102.37C167.182 97.2923 169.222 92.1157 171.037 86.8555C168.241 88.6211 164.959 89.2636 161.907 90.4337C161.015 90.6844 160.608 91.6769 159.763 91.9851C156.935 91.9695 154.676 89.8487 151.948 89.4569C150.706 92.5232 149.777 95.7461 147.883 98.5199C144.419 97.5692 141.023 96.3834 137.605 95.2864C137.699 93.594 138.383 92.0321 139.337 90.6583C142.16 90.6427 144.622 92.3038 147.414 92.4762C147.649 93.056 147.889 93.641 148.123 94.2208C148.149 92.9881 148.149 91.7553 148.222 90.5277C148.447 90.7628 148.885 91.2329 149.109 91.468C149.135 90.6218 149.177 89.7808 149.219 88.9398C144.21 87.4824 139.452 85.2937 134.433 83.8781C130.927 82.8856 127.411 81.9349 123.884 81.0573C122.903 82.3423 121.567 83.549 121.385 85.2467C121.687 86.3018 123.033 86.2496 123.879 86.5944C124.708 85.4034 126.08 85.978 126.853 86.8973C127.572 87.8428 128.804 87.3152 129.769 87.1951C129.821 86.7302 129.925 85.7899 129.978 85.3198C130.823 86.1504 131.971 87.1324 131.783 88.454C130.745 90.1412 129.07 91.3113 127.927 92.9202C121.625 90.9456 115.406 88.7517 109.156 86.6257C107.596 86.0668 105.493 85.9153 104.768 84.1811C104.043 82.6192 105.404 81.2506 106.636 80.5193C107.59 79.741 109.041 80.0753 109.886 79.1455C110.794 78.3567 111.081 77.1448 111.728 76.1785C114.055 76.2255 116.194 77.4478 118.494 77.8135C118.265 76.5859 117.9 75.3845 117.352 74.2614C117.117 71.3727 119.397 69.2467 120.55 66.8073C123.66 60.5808 127.035 54.4326 131.418 49C132.289 47.9971 133.27 47.0986 134.277 46.2263C134.986 46.8113 135.654 47.5008 136.546 47.8142C139.202 48.8851 141.878 49.9141 144.643 50.6872C153.033 53.1214 161.255 56.0989 169.676 58.4286C170.5 58.695 171.34 58.9458 172.117 59.348C172.843 60.1994 172.05 61.3121 171.841 62.221C170.312 65.8148 168.445 69.2572 166.618 72.7048C165.559 74.6218 164.605 76.6329 163.118 78.2679C160.462 76.8575 157.347 76.9202 154.504 76.1106C146.991 74.2301 139.541 72.125 132.179 69.7273C129.743 69.0535 127.515 67.8102 125.068 67.1886C127.948 61.9493 131.068 56.8354 133.724 51.4812C136.478 53.0744 139.583 53.8841 142.504 55.1064C150.502 57.8227 158.667 60.0218 166.869 62.0225C167.438 62.2628 168.257 62.2523 168.617 62.8321C167.161 67.1782 163.613 70.7302 163.264 75.4472C163.086 75.0815 162.737 74.3502 162.559 73.9846C151.04 71.8951 139.984 67.8207 128.501 65.5484C129.372 63.9813 130.677 62.7224 131.632 61.2128C133.15 58.9144 134.016 56.2765 135.247 53.8266C134.991 53.3304 134.48 52.3327 134.224 51.8364C132.931 54.3385 132.534 57.1906 131.214 59.6875C130.239 62.2732 128.642 64.5403 127.463 67.0163C130.4 67.6013 133.113 68.9385 136.009 69.696C144.727 72.2346 153.45 74.7681 162.33 76.6747C162.878 75.7345 163.796 75.1024 164.422 74.2353C165.747 71.6809 167.005 69.0953 168.22 66.4887C169.123 64.5455 170.417 62.7486 170.724 60.5808C169.89 60.1054 169.05 59.6405 168.142 59.3271C161.156 56.9556 154.118 54.7355 147.059 52.6095C142.703 51.3976 138.346 50.1492 134.193 48.3627C133.249 50.0604 131.945 51.4917 130.755 53.0117C126.659 58.8465 123.32 65.1514 119.694 71.2735C126.613 72.8771 133.343 75.1703 140.146 77.171C147.012 79.4537 153.941 81.5431 160.692 84.1601C161.746 82.7707 162.721 81.2715 164.099 80.1641C168.778 76.2411 172.373 71.2578 176.223 66.5722C175.217 71.0123 171.737 74.2614 168.752 77.4739C166.316 80.2947 162.773 82.2379 161.359 85.8631C154.546 82.5513 147.132 80.7178 140.021 78.1634C133.129 76.0792 126.253 73.948 119.345 71.9212C118.985 72.8615 118.834 73.8487 118.828 74.8569C120.941 75.1233 122.851 76.1053 124.88 76.6747C134.532 79.5477 144.174 82.4468 153.779 85.4713C156.429 86.2757 159.074 87.3936 161.897 87.2682C164.985 87.5242 168.043 86.3071 170.5 84.5049C171.502 82.3789 171.664 79.9656 172.634 77.8291C173.881 75.0554 175.483 72.4488 176.49 69.5654C178.347 64.7597 181.446 59.8129 186.653 58.2406C188.781 57.175 191.051 58.0212 193.185 58.5435C193.091 58.3712 192.898 58.0316 192.804 57.8645C189.068 57.5458 185.489 56.1407 181.707 56.2556C179.124 56.0571 176.109 56.1981 174.434 58.4913C174.752 57.807 175.07 57.1175 175.394 56.4332C165.549 54.4952 155.986 51.4029 146.287 48.8799C140.151 47.2919 134.219 45.0039 128.037 43.6249C121.552 41.6974 114.889 40.4594 108.394 38.5789C96.8637 35.5126 85.3909 32.1852 73.6886 29.8346C68.847 28.8003 64.8506 32.462 61.4802 35.382ZM174.726 36.4686C174.194 37.4924 173.573 38.5371 173.61 39.7333C173.437 43.7816 173.323 47.8247 173.182 51.873C173.677 52.0297 174.189 52.1342 174.716 52.176C174.971 47.271 175.034 42.3608 175.102 37.4454C175.263 37.5603 175.582 37.7901 175.743 37.905C175.983 40.4385 175.77 42.9929 176.004 45.5263C176.182 47.4172 175.582 49.3552 176.239 51.1887C176.923 50.9327 177.611 50.6872 178.305 50.4417C178.556 45.8972 178.383 41.3422 178.363 36.7976C177.152 36.6462 175.942 36.5365 174.726 36.4686ZM196.279 57.6608C195.126 57.9898 194.249 58.8622 193.164 59.3271C191.286 59.9121 189.246 59.4577 187.378 60.0845C185.223 60.8158 183.105 62.012 181.827 63.9604C180.126 66.4364 179.067 69.2781 177.689 71.9317C176.27 74.9614 174.413 77.8187 173.599 81.0939C172.404 85.8683 171.163 90.6583 169.17 95.1768C165.658 103.952 161.526 112.509 156.346 120.428C150.57 129.449 146.396 139.583 138.983 147.465C135.931 150.563 132.764 153.624 129.012 155.865C126.607 155.536 124.364 154.386 122.011 153.775C103.161 146.875 84.1544 140.418 65.3149 133.487C56.9099 130.577 48.4892 127.694 40.1103 124.695C34.8461 122.888 29.6184 120.887 24.2864 119.315C20.9786 120.84 17.8483 122.737 14.5196 124.225C11.9997 125.427 9.34412 126.315 6.81896 127.511C13.5231 129.783 20.076 132.463 26.7959 134.678C33.5992 137.133 40.2981 139.854 47.0597 142.419C58.7777 147.162 70.7148 151.32 82.5527 155.734C93.2325 159.432 103.573 164.045 114.268 167.675C115.933 165.769 118.343 164.818 120.414 163.444C127.473 159.004 134.908 155.217 142.129 151.049C151.948 145.903 161.761 140.732 171.549 135.519C183.204 129.527 194.666 123.154 206.426 117.377C206.442 105.953 206.995 94.5447 207.193 83.1259C207.704 73.4204 207.376 63.6836 208.085 53.9833C204.11 55.0907 200.197 56.381 196.279 57.6608ZM119.606 76.612C119.976 77.1814 120.467 77.6045 121.072 77.8918C123.586 79.182 126.346 79.9134 129.101 80.5036C136.499 82.4677 143.642 85.2519 150.888 87.6913C150.784 88.1353 150.575 89.0129 150.471 89.4517C151.008 88.9659 151.228 88.2973 151.248 87.5816C154.415 88.0831 157.16 90.4494 160.353 90.4964C161.088 89.1592 159.043 88.898 158.198 88.5323C150.988 86.5996 144.043 83.8311 136.87 81.7834C131.971 80.42 127.108 78.9365 122.308 77.265C121.427 76.9672 120.519 76.7583 119.606 76.612ZM110.596 81.0678C112.922 82.5983 116.089 81.9715 118.187 84.0296C118.948 82.7916 119.825 81.5745 120.148 80.1275C117.764 79.2604 115.275 78.7276 112.792 78.2314C111.561 78.5187 111.263 80.1223 110.596 81.0678ZM107.199 83.5751C108.623 85.022 111.023 84.4892 112.265 83.0789C110.768 82.5095 109.255 82.2588 107.883 83.2721C108.102 82.8438 108.535 81.9871 108.754 81.564C108.263 82.2065 106.855 82.6244 107.199 83.5751ZM114.498 84.3325C113.715 85.0116 113.653 86.4533 114.915 86.5996C115.489 86.0198 116.199 85.6175 116.95 85.3198C116.809 85.9989 116.455 86.563 115.901 87.0175C117.717 86.9913 119.757 89.0077 121.348 87.5868C120.07 86.7824 118.552 86.1086 117.91 84.6355C116.851 84.3378 115.401 83.152 114.498 84.3325ZM110.251 85.6646C110.909 85.8683 111.571 86.0668 112.26 86.1556C112.959 86.0563 113.063 85.1997 113.392 84.7139C112.317 84.9385 111.279 85.2885 110.251 85.6646ZM121.234 89.1017C122.741 90.2404 124.171 88.9763 125.34 88.0309C124.286 87.8062 123.227 87.6182 122.162 87.4719C121.933 87.8794 121.463 88.6943 121.234 89.1017ZM124.729 90.627C125.559 90.6897 126.393 90.8516 127.233 90.7628C127.828 90.324 128.199 89.6502 128.621 89.0495C127.014 88.5741 125.694 89.4256 124.729 90.627ZM140.151 92.5597C140.115 92.9672 140.042 93.7768 140.005 94.1843C141.852 94.4663 144.273 96.6133 145.723 94.5186C145.791 95.5529 146.506 96.2163 147.414 96.5767C147.529 95.8193 147.617 95.0566 147.69 94.294C146.751 94.1268 145.4 94.9365 144.836 93.8447C143.271 93.4164 141.711 92.9828 140.151 92.5597ZM187.336 129.647C172.905 137.546 158.26 145.026 143.725 152.72C134.491 157.86 125.345 163.183 116.194 168.454C115.745 170.637 115.943 172.878 115.881 175.088C115.735 184.433 115.735 193.783 115.38 203.123C126.179 197.126 136.692 190.617 147.581 184.783C157.071 179.663 166.462 174.362 175.963 169.258C185.948 163.982 195.689 158.262 205.565 152.772C205.659 152.025 205.769 151.284 205.805 150.531C205.92 142.691 205.889 134.845 206.15 127.004C206.369 124.591 206.369 122.162 206.374 119.743C200.165 123.29 193.633 126.252 187.336 129.647ZM2.34255 128.242C2.50429 137.942 1.81561 147.648 2.43124 157.343C7.61199 158.147 12.2345 160.864 17.0448 162.807C28.5176 167.419 39.7503 172.601 51.2439 177.156C69.8174 184.746 88.0569 193.12 106.677 200.6C109.182 201.597 111.655 202.736 114.289 203.373C114.128 200.041 113.893 196.713 114.107 193.381C114.143 185.582 114.368 177.773 114.138 169.979C95.7628 162.702 77.1633 155.985 58.6838 148.959C47.2371 144.446 35.7278 140.105 24.1559 135.921C16.8883 133.367 9.7928 130.238 2.34255 128.242Z" fill="#0D0D0D"/>
<path d="M62.9408 35.9356C65.2729 34.8125 67.8033 36.3169 70.125 36.8236C81.9734 39.6235 93.7801 42.5905 105.503 45.8814C106.495 46.1791 107.533 46.294 108.566 46.3828C108.477 46.9992 108.399 47.6104 108.326 48.2268C109.098 48.9685 110.663 49.7677 109.917 51.0684C107.616 56.5375 105.54 62.1216 102.743 67.3713C98.0686 77.3014 93.4983 87.2785 88.8028 97.1929C86.3246 101.633 84.0394 106.178 82.0256 110.847C79.3178 116.092 77.6066 121.754 75.5092 127.25C75.5927 127.427 75.7649 127.772 75.8483 127.944C76.1144 127.955 76.6518 127.97 76.9179 127.976C81.5925 129.532 86.2463 131.141 90.8897 132.787C103.176 136.804 115.04 142.074 127.567 145.349C129.153 142.67 130.03 139.656 131.548 136.945C136.588 127.647 140.673 117.878 145.306 108.377C145.843 107.619 145.692 105.984 146.954 106.115C146.746 108.361 145.525 110.346 144.617 112.368C142.045 117.356 139.885 122.538 137.433 127.584C135.075 132.787 132.127 137.692 129.753 142.884C129.085 144.394 128.308 145.851 127.416 147.235C127.489 146.41 127.129 145.924 126.336 145.783C122.209 144.446 117.983 143.432 113.929 141.87C107.303 139.515 100.782 136.851 94.0722 134.751C89.9715 133.633 86.095 131.862 82.0569 130.572C78.1074 129.36 74.2571 127.882 70.318 126.654C65.106 124.842 60.1287 122.428 54.8541 120.793C48.4473 118.474 41.8526 116.667 35.5606 114.029C32.7016 112.848 29.7695 111.824 26.9574 110.513C26.3991 110.299 26.0339 109.818 25.7261 109.333C29.566 111.051 33.3903 112.817 37.3032 114.358C41.2266 115.705 45.1708 116.985 49.1099 118.286C57.9636 120.741 66.4312 124.387 74.8936 127.934C76.0048 122.454 77.7996 117.131 80.236 112.106C82.156 108.241 83.862 104.271 85.8029 100.416C91.2862 90.6425 95.3661 80.1796 100.349 70.1607C102.399 66.3266 103.02 61.9388 105.002 58.0733C106.182 55.2473 108.352 52.8183 108.66 49.6685C108.002 49.3237 107.361 48.9633 106.719 48.6029C104.522 51.4497 103.766 55.0906 101.663 58.0106C98.2304 62.7014 94.6565 67.2982 91.4062 72.1248C90.681 73.3419 89.2358 74.1307 87.8167 73.7389C84.0812 73.0859 80.4865 71.8323 76.8553 70.7771C70.0624 68.7503 63.3008 66.6087 56.5184 64.5297C54.9323 64.0021 53.4819 63.1559 52.0367 62.3305C52.0524 61.7664 52.0889 61.197 52.1567 60.6381C54.4523 54.9809 57.0975 49.4804 59.6279 43.9277C60.8748 41.3264 61.3287 38.3646 62.9408 35.9356ZM60.7704 44.1001C58.694 48.8223 56.5653 53.5235 54.6506 58.3188C54.301 59.2329 53.868 60.1888 54.0037 61.197C55.3601 62.5865 57.374 62.8633 59.127 63.4849C67.4381 66.3632 75.9527 68.5936 84.4046 71.0174C85.902 71.4562 87.4254 71.78 88.9541 72.0778C91.4166 69.8578 93.0183 66.9012 95.0531 64.3155C98.653 59.7396 101.465 54.6152 104.251 49.5222C104.611 48.9006 104.82 48.2111 104.955 47.5111C100.996 46.3097 96.9574 45.406 92.987 44.2516C83.596 41.5562 73.9858 39.6809 64.6208 36.9124C62.4817 38.7407 61.8765 41.6346 60.7704 44.1001Z" fill="#0D0D0D"/>
<path d="M46.5954 77.8396C50.7014 78.0276 54.5882 79.4589 58.5481 80.42C63.1028 81.7625 67.5688 83.3818 72.0765 84.8758C73.8921 85.5392 75.8642 86.0145 77.3407 87.3413C75.5094 87.1428 73.8764 86.2339 72.1234 85.7429C64.8453 83.2251 57.5203 80.7491 49.9918 79.0776C48.8597 78.7171 47.2527 79.0462 46.5954 77.8396Z" fill="#0D0D0D"/>
<path d="M39.2387 81.6999C40.2561 80.9999 41.31 80.3522 42.343 79.6784C43.8508 80.8014 45.6977 81.282 47.5655 81.3186C49.8298 82.5827 52.3654 83.4341 54.9897 83.3767C57.52 84.2386 60.1913 84.6669 62.6486 85.743C61.4017 89.1853 59.5443 92.3561 58.0939 95.7096C56.1009 99.5803 54.7549 103.744 52.7045 107.583C51.3845 110.153 50.4767 112.921 49.0733 115.45C46.9499 115.335 44.9934 114.374 42.9639 113.815C41.6804 113.339 39.7083 112.927 39.9639 111.125C41.623 111.38 43.2717 111.689 44.8995 112.101C44.576 110.085 44.7325 107.249 46.7203 106.11C45.3064 105.702 43.8769 105.326 42.5465 104.679C40.8561 107.499 40.7413 111.271 38.0231 113.418C37.9344 112.41 37.7257 111.365 38.0336 110.367C39.9379 104.475 42.7082 98.9274 45.1864 93.265C46.6525 90.089 48.515 87.0071 49.0837 83.5073C48.2229 83.9722 48.155 85.0117 47.8055 85.8213C46.9864 88.36 45.6455 90.6741 44.4247 93.0299C42.4108 97.1252 40.8509 101.445 38.5709 105.41C37.7988 105.102 37.564 103.905 36.651 103.749C35.6754 103.435 34.0632 103.822 34.225 102.291C33.9432 102.647 33.6563 103.002 33.3693 103.362C32.7537 102.37 31.705 101.879 30.6563 101.503C29.7381 102.965 29.112 104.579 28.5694 106.209C30.1398 106.794 31.6737 107.567 33.3693 107.734C32.8685 108.095 32.3676 108.46 31.8772 108.842C32.2893 108.727 33.1085 108.497 33.5206 108.377L33.6458 109.207C33.6458 108.988 33.6406 108.554 33.6354 108.34C33.8963 108.382 34.418 108.471 34.6789 108.518C35.2162 107.374 35.5397 106.141 36.124 105.023C36.8179 104.449 38.0544 104.689 38.1849 105.65C37.7779 107.687 37.1623 109.693 36.2388 111.558C32.9102 110.733 29.6755 109.578 26.446 108.445C27.1921 105.112 27.8808 101.194 30.6146 98.9221C31.7989 95.4119 33.5937 92.1732 35.1067 88.8092C35.3936 88.0257 36.0927 87.5399 36.9327 87.5608C37.5692 85.5549 38.5814 83.6953 39.2387 81.6999ZM38.2109 88.2607C40.3239 88.6891 42.2648 90.0733 44.4821 89.8017C43.0108 88.6786 40.6265 88.9398 39.6248 87.3048C41.5083 86.5787 42.9065 88.7465 44.8369 88.3652C45.5203 86.9026 46.3134 85.4557 46.5638 83.8416C44.9516 83.314 43.3604 82.7342 41.8056 82.0708C39.8909 83.6483 39.5518 86.2705 38.2109 88.2607ZM48.9846 90.0577C49.9759 90.2509 50.9724 90.4233 51.9636 90.627C52.4645 88.5324 53.0801 86.4638 53.8262 84.4423C53.4453 84.3065 52.6784 84.0401 52.2923 83.9043C50.7585 85.6907 50.1063 88.0205 48.9846 90.0577ZM54.2905 85.5601C53.4871 87.2108 53.1584 89.0443 52.428 90.7263C54.1549 91.0972 55.8349 91.6352 57.5252 92.1523C58.3078 90.3972 59.3252 88.7361 59.8521 86.8713C57.9374 86.678 56.174 85.7743 54.2905 85.5601ZM34.5849 93.5679C36.7397 94.341 38.8683 95.1873 41.0074 96.0021C41.5969 94.5134 42.1604 93.0195 42.6821 91.5046C40.4231 91.1181 38.2631 90.3241 36.1084 89.5667C35.5658 90.883 35.0493 92.215 34.5849 93.5679ZM45.5047 97.4334C46.8455 97.6162 48.1916 97.7938 49.5376 97.9558C50.3202 95.9812 51.2437 94.059 51.8332 92.0165C50.9045 91.4001 49.7046 91.4106 48.6507 91.1546C47.6229 93.2598 46.4646 95.297 45.5047 97.4334ZM50.6802 97.6319C51.9428 97.8304 53.2001 98.0393 54.4575 98.2326C55.2036 96.6081 56.0957 95.0567 56.967 93.5C55.5322 93.0717 54.0923 92.659 52.668 92.1994C51.7184 93.8918 51.1811 95.7671 50.6802 97.6319ZM33.9537 94.3724C34.9188 95.976 37.2144 95.7044 38.6075 96.8484C38.5709 97.0521 38.5031 97.4595 38.4666 97.6685C36.7136 97.1879 35.018 96.535 33.3693 95.7775C32.8059 97.1775 32.2215 98.5826 31.3085 99.7945C32.6702 100.343 34.0163 100.923 35.378 101.466C35.9936 101.779 36.5988 102.109 37.1988 102.453C38.404 100.552 39.1031 98.4259 39.8179 96.3156C37.7518 96.5558 36.0458 94.6231 33.9537 94.3724ZM42.9952 103.994C44.2891 104.172 45.5829 104.396 46.8612 104.684C47.6177 102.809 48.3324 100.912 49.1359 99.058C47.7846 98.7759 46.449 98.4416 45.1186 98.0968C44.2004 99.9825 43.4856 101.952 42.9952 103.994ZM47.6594 105.039C48.6872 105.284 49.7202 105.525 50.7689 105.687C50.8315 105.473 50.9619 105.055 51.0245 104.84C52.5897 103.508 52.9914 101.382 53.8053 99.5803C52.5636 99.4393 51.3219 99.2982 50.0802 99.152C49.2559 101.106 48.3533 103.028 47.6594 105.039ZM46.7359 106.199C46.4281 108.21 45.8647 110.179 45.0299 112.033C46.1516 112.164 47.2629 112.378 48.3637 112.655C49.3081 110.978 49.8037 109.098 50.4924 107.311C49.2559 106.888 47.9933 106.533 46.7359 106.199ZM28.9816 107.128C29.0494 107.959 30.9798 108.518 31.3815 107.813C30.745 107.369 29.7538 106.773 28.9816 107.128Z" fill="#0D0D0D"/>
<path d="M62.8213 86.0094C66.3482 86.7198 69.802 87.7907 73.2454 88.825C74.7114 89.4727 76.2923 88.1825 77.6905 89.222C77.4557 91.3009 76.6209 93.2232 75.7184 95.0828C71.6698 103.503 68.0125 112.117 63.9743 120.538C62.4822 120.778 61.0318 119.952 59.597 119.623C56.5971 118.714 53.5294 117.999 50.7277 116.562C50.8998 113.475 52.1311 110.571 53.378 107.787C55.6945 103.806 57.0562 99.3767 59.1431 95.2866C60.3327 92.1785 61.8613 89.2011 62.8213 86.0094ZM61.8091 93.568C63.4421 93.9128 65.0282 94.4821 66.6977 94.6441C67.4438 92.9464 68.2473 91.2696 68.8316 89.5093C67.3134 89.013 65.7847 88.5429 64.23 88.1772C63.3848 89.9585 62.5552 91.745 61.8091 93.568ZM69.4576 89.6503C68.7951 91.4995 67.9812 93.2964 67.4021 95.1821C68.7846 95.5373 70.1568 95.9343 71.5602 96.1955C72.0819 94.5448 72.7706 92.9516 73.5062 91.3845C72.2228 90.6584 70.8611 90.0786 69.4576 89.6503ZM58.7884 100.087C60.2805 100.573 61.7778 101.027 63.2961 101.435C64.0734 99.4811 64.8247 97.5118 65.8317 95.6574C64.376 95.2448 62.91 94.8582 61.4805 94.3672C60.5101 96.2373 59.6909 98.1805 58.7884 100.087ZM64.2404 101.665C65.8525 101.999 67.4438 102.438 69.0455 102.856C69.5516 100.97 70.1933 99.1259 70.8194 97.2768C69.4733 96.8693 68.1377 96.4253 66.8021 95.9813C65.743 97.773 64.7047 99.6169 64.2404 101.665ZM58.371 100.959C57.5675 102.95 56.7588 104.935 55.9293 106.914C57.484 107.437 59.0544 107.912 60.6614 108.262C61.5744 106.408 62.31 104.47 63.0978 102.558C61.4961 102.103 59.9153 101.571 58.371 100.959ZM63.9743 103.038C63.2178 104.841 62.4822 106.658 61.6578 108.429C63.2387 108.842 64.8091 109.307 66.3377 109.881C67.089 107.954 67.9238 106.058 68.5185 104.073C67.0055 103.712 65.503 103.336 63.9743 103.038ZM53.1068 113.527C54.9171 113.966 56.6754 114.583 58.4075 115.256C58.851 113.24 59.764 111.375 60.1866 109.359C58.5275 108.978 56.9049 108.44 55.3554 107.724C54.5415 109.636 53.8267 111.584 53.1068 113.527ZM61.4074 109.84C60.677 111.736 60.0353 113.674 59.2266 115.539C60.5883 116.003 61.9187 116.552 63.27 117.043C63.103 114.53 65.2265 112.942 65.9517 110.733C64.4386 110.425 62.9361 110.069 61.4074 109.84ZM52.872 114.687C52.8772 114.969 52.8876 115.528 52.8876 115.81C56.3519 116.176 59.5396 117.659 62.8682 118.579C59.717 116.871 56.138 116.144 52.872 114.687Z" fill="#0D0D0D"/>
<path d="M96.9678 89.8851C96.5609 87.9524 98.7887 88.9814 99.8582 89.0546C104.768 90.2403 109.599 91.7186 114.477 92.9932C114.993 93.1708 115.505 93.3588 116.016 93.5521C117.013 93.8655 118.213 93.7454 119.021 94.5133C119.225 94.4715 119.637 94.3774 119.846 94.3356L119.903 94.999C120.101 94.9781 120.498 94.9416 120.696 94.9259C122.204 95.6677 123.858 96.0229 125.433 96.6027C129.252 97.825 133.04 99.1466 136.88 100.291C137.454 100.797 138.315 100.473 138.868 101.001C141.534 101.544 143.908 102.897 146.375 103.968C147.153 103.665 146.996 102.516 147.659 102.108C147.434 102.913 147.153 104.25 146.099 104.281C137.918 101.555 129.691 98.8488 121.437 96.3154C115.5 93.8969 109.181 92.6641 103.062 90.8358C101.063 90.397 99.0495 89.321 96.9678 89.8851Z" fill="#0D0D0D"/>
<path d="M97.1821 92.0216C97.6829 91.3791 98.5542 91.5933 99.222 91.7866C101.189 92.3821 103.093 93.2178 105.133 93.5678C104.251 95.7304 102.827 97.8982 102.577 100.181C102.718 100.186 102.994 100.197 103.13 100.202C104.011 98.0601 105.759 96.0073 105.295 93.5574C107.481 95.1558 110.298 95.2759 112.808 96.0699C115.396 96.702 117.895 97.6997 120.535 98.1176C119.303 103.137 116.147 107.327 113.971 111.934C111.644 116.238 110.032 120.872 108.024 125.322C106.604 128.347 106.286 131.92 104.152 134.573C100.787 133.706 97.3856 132.933 94.0987 131.784C92.7318 131.35 91.537 130.546 90.457 129.621C90.1857 126.158 91.9961 123.06 93.1439 119.921C94.4065 117.205 95.1995 114.248 97.036 111.845C98.4029 107.922 101.314 104.548 101.982 100.411C101.225 102.119 100.631 103.89 99.8325 105.572C99.2429 106.836 97.9282 107.614 97.516 108.983C96.4464 112.143 94.6674 114.979 93.5196 118.108C91.9492 121.598 90.097 125.004 89.4449 128.827C85.8137 128.707 82.3651 127.203 78.9269 126.116C80.106 123.133 81.2747 120.14 82.5268 117.189C84.4467 113.438 85.4485 109.202 87.9945 105.786C88.8605 105.337 88.8814 106.601 88.704 107.134C88.438 108.199 87.7597 109.082 87.2015 110.007C89.6275 110.524 92.0013 111.265 94.2865 112.232C94.8656 110.503 95.6273 108.852 96.3943 107.207C93.9056 106.319 91.3335 105.687 88.871 104.731C90.0553 102.255 90.3631 99.1728 92.7161 97.4281C93.5978 96.3729 95.0274 97.2818 96.1595 97.2557C94.8291 95.511 95.9508 93.4581 97.1821 92.0216ZM97.3803 97.3602C98.4394 97.5012 99.4933 97.7049 100.526 97.987C101.413 96.9736 102.191 95.8192 102.384 94.4558C100.996 94.0641 99.6238 93.6148 98.1942 93.3954C97.2343 94.4454 97.4273 96.0334 97.3803 97.3602ZM104.512 101.278C106.307 101.821 108.149 102.229 109.933 102.819C110.622 101.168 111.243 99.4914 111.738 97.7728C110.137 97.3758 108.577 96.8378 107.037 96.2528C106.161 97.9087 105.331 99.5906 104.512 101.278ZM110.663 103.085C112.103 103.362 113.528 103.733 114.916 104.224C115.677 102.683 116.543 101.173 117.039 99.5175C115.542 99.1519 114.055 98.7235 112.641 98.1019C112.145 99.8257 111.514 101.502 110.663 103.085ZM91.7248 100.562C91.6205 101.523 90.7388 103.122 92.0535 103.566C93.9213 104.328 95.7891 105.122 97.7508 105.598C98.2829 103.717 99.0029 101.899 99.7855 100.113C98.7681 99.9041 97.7508 99.7056 96.7282 99.528C96.0134 100.63 94.4691 100.296 93.3787 100.108C94.4639 99.8362 95.9299 100.458 96.7073 99.4183C95.116 99.272 92.2413 98.3056 91.7248 100.562ZM103.474 101.967C102.775 103.712 102.154 105.493 101.632 107.301C103.531 107.499 105.347 108.121 107.231 108.439C108.514 107.316 108.858 105.368 109.63 103.853C107.538 103.346 105.478 102.751 103.474 101.967ZM108.707 108.81C109.792 109.087 110.862 109.406 111.963 109.625C113.063 108.408 113.46 106.663 113.909 105.107C112.776 104.788 111.655 104.454 110.533 104.12C109.855 105.655 109.224 107.212 108.707 108.81ZM98.2986 113.606C100.015 114.138 101.737 114.661 103.432 115.256C104.471 113.308 105.603 111.401 106.432 109.348C104.606 109.139 102.665 108.852 101.377 107.395C100.172 109.369 99.2742 111.511 98.2986 113.606ZM107.606 109.771C106.49 111.678 105.587 113.7 104.533 115.638C106.051 115.925 107.559 116.28 109.083 116.552C109.855 114.629 110.517 112.66 111.43 110.801C110.121 110.586 108.843 110.242 107.606 109.771ZM83.9459 116.808C86.2884 117.701 88.5945 118.699 90.9266 119.613C91.6779 117.847 92.4187 116.082 93.2222 114.337C90.8014 113.799 88.6414 112.477 86.2571 111.871C85.3024 113.412 84.8276 115.214 83.9459 116.808ZM97.4795 114.535C96.4934 116.641 95.6117 118.798 94.7926 120.971C96.6186 121.504 98.4707 121.963 100.333 122.355C101.053 120.213 101.945 118.14 102.921 116.103C101.121 115.517 99.3055 114.995 97.4795 114.535ZM103.991 116.651C103.041 118.605 102.05 120.553 101.293 122.595C102.89 122.919 104.476 123.285 106.051 123.719C106.782 121.76 107.57 119.822 108.431 117.915C106.996 117.34 105.498 116.964 103.991 116.651ZM80.9094 124.418C83.2259 125.286 85.5945 126.033 88.0258 126.534C88.1823 124.612 88.5736 122.622 90.3162 121.504C88.0206 120.454 85.5371 119.822 83.3772 118.469C82.4798 120.422 81.6033 122.381 80.9094 124.418ZM92.0587 128.608C93.8795 129.381 95.7212 130.138 97.6621 130.582C96.8325 128.78 93.9943 129.6 92.7839 128.075C94.3543 128.362 95.8621 128.921 97.3856 129.391C98.3925 127.448 99.1229 125.38 99.8951 123.342C98.1212 122.857 96.3369 122.402 94.5526 121.969C93.3004 123.985 91.97 126.142 92.0587 128.608ZM100.907 123.943C100.161 125.683 99.4255 127.433 98.8203 129.229C100.385 129.804 101.909 130.488 103.365 131.308C103.954 129.141 104.872 127.088 105.488 124.936C103.985 124.497 102.452 124.173 100.907 123.943ZM98.1525 130.243C99.1803 131.779 101.476 131.69 103.098 132.259C101.601 131.288 99.9785 130.337 98.1525 130.243Z" fill="#0D0D0D"/>
<path d="M122.705 103.488C123.289 102.359 123.727 101.08 124.713 100.233C129.294 101.08 133.619 103.002 138.111 104.25C139.202 104.658 141.148 105.138 140.809 106.69C139.238 111.814 135.8 116.082 133.802 121.029C131.569 126.33 128.579 131.376 127.233 137.013C126.957 138.167 126.409 140.126 124.823 139.598C119.079 138.23 113.783 135.508 108.175 133.727C108.336 132.489 108.509 131.225 109.098 130.107C111.425 125.698 112.672 120.778 115.369 116.552C117.785 112.18 120.686 108.074 122.705 103.488ZM120.67 112.467C118.818 115.915 116.34 118.997 114.743 122.585C113.449 125.834 111.827 129.031 111.268 132.51C111.957 132.557 112.881 133.476 113.454 132.891C114.435 130.41 114.274 127.647 115.218 125.155C117.362 126.519 119.804 127.266 122.193 128.075C123.477 125.662 124.166 122.998 125.261 120.506C123.383 119.488 121.343 118.772 119.527 117.649C119.037 117.487 119.261 116.474 119.82 116.839C121.943 117.529 123.926 118.61 126.101 119.148C127.103 117.111 127.964 115.006 128.882 112.927C127.066 111.934 125.099 111.239 123.326 110.163C125.485 110.085 127.505 110.937 129.529 111.574C130.505 109.354 131.564 107.149 132.137 104.788C130.061 103.879 127.844 103.415 125.689 102.756C123.712 105.833 122.407 109.265 120.67 112.467ZM130.317 112.096C131.778 112.66 133.238 113.214 134.71 113.762C136.071 111.589 137.261 109.312 138.221 106.93C136.504 106.382 134.772 105.875 133.082 105.253C132.456 107.646 131.428 109.897 130.317 112.096ZM129.8 113.412C128.991 115.502 128.042 117.544 127.322 119.676C128.543 120.057 129.727 120.527 130.891 121.06C131.986 119.153 132.868 117.132 133.708 115.1C132.43 114.478 131.136 113.898 129.8 113.412ZM123.211 128.571C124.531 129.193 125.84 129.877 127.275 130.18C128.272 127.354 129.946 124.779 130.52 121.796C129.263 121.352 128.005 120.914 126.748 120.475C124.906 122.82 124.139 125.782 123.211 128.571ZM116.314 127.48C116.361 129.386 115.385 131.852 116.914 133.377C119.407 134.981 122.397 135.508 125.068 136.746C125.459 135.132 125.715 133.492 125.814 131.836C122.621 130.447 119.454 128.984 116.314 127.48Z" fill="#0D0D0D"/>
<path d="M6.70938 134.422C24.5211 140.513 42.0824 147.309 59.6072 154.178C70.7147 158.247 81.6762 162.692 92.7107 166.949C98.4915 168.997 104.058 171.63 109.938 173.416C110.215 180.933 109.818 188.465 110.126 195.977C103.224 194.655 96.8845 191.5 90.483 188.721C80.4189 184.48 70.4382 180.008 60.2541 176.054C53.55 173.416 46.9188 170.59 40.3033 167.743C31.4549 164.04 22.5386 160.509 13.7057 156.758C11.4258 155.86 9.04672 155.243 6.7459 154.402C6.70416 147.742 6.67808 141.082 6.70938 134.422ZM7.85196 135.843C7.925 141.698 7.81022 147.554 7.78935 153.41C11.0919 154.475 14.3892 155.577 17.5352 157.051C31.3296 162.384 44.8684 168.339 58.5168 174.012C68.9826 178.081 79.3285 182.432 89.643 186.862C95.8828 189.515 101.982 192.529 108.425 194.671C108.592 187.943 108.321 181.205 108.498 174.477C97.5367 170.151 86.45 166.108 75.4938 161.752C64.9914 157.599 54.3743 153.744 43.898 149.513C33.4739 145.689 23.1803 141.489 12.704 137.791C11.0554 137.222 9.44844 136.537 7.85196 135.843Z" fill="#0D0D0D"/>
<path d="M52.6215 167.858C51.6458 165.345 52.0528 161.825 54.891 160.78C56.0023 160.973 57.4579 160.764 58.2144 161.793C59.4926 163.857 58.9604 166.594 57.5622 168.464C55.9031 169.336 53.9936 169.164 52.6215 167.858ZM54.004 166.641C54.604 166.855 55.2875 167.968 55.877 167.231C56.644 166.777 56.2736 165.784 56.3988 165.069C56.0544 165.058 55.3657 165.027 55.0214 165.011C55.4388 164.63 55.9396 164.353 56.3779 164.003C54.2075 163.005 53.6545 165.121 54.004 166.641Z" fill="#0D0D0D"/>
</svg>
