<svg width="280" height="212" viewBox="0 0 280 212" fill="none" xmlns="http://www.w3.org/2000/svg">
<path d="M111.134 53.6239L3.1087 13.9888C6.14477 9.57402 53.2051 6.09609 97.1449 0.7771L214.496 40.4122L111.134 53.6239Z" fill="#BDFF32" stroke="#0D0D0D"/>
<path d="M258.313 82.5403C258.442 82.5972 258.525 82.5869 258.561 82.5093C258.592 82.4421 258.6 82.3723 258.584 82.2999C257.871 78.4449 257.421 74.8149 260.012 71.5494C260.198 71.3219 260.436 71.203 260.725 71.1926L267.202 70.96C267.275 70.9579 267.347 70.9702 267.414 70.9962C267.482 71.0221 267.544 71.0612 267.596 71.1111C267.648 71.161 267.689 71.2207 267.718 71.2867C267.746 71.3527 267.76 71.4236 267.76 71.4952C267.776 75.9525 267.719 80.4435 267.59 84.9681C267.481 88.6834 268.381 92.3212 268.327 95.959C268.321 96.2382 268.458 96.3985 268.738 96.4399L269.025 96.4787C269.619 96.5614 269.694 96.807 269.25 97.2155L267.272 99.0538C267.018 99.2917 266.995 99.5502 267.202 99.8295C270.18 103.816 273.826 108.974 275.781 112.434C277.182 114.926 277.867 118.073 277.836 121.873C277.733 135.504 277.668 148.038 277.642 159.477C277.642 159.652 277.711 159.821 277.835 159.945C277.958 160.07 278.126 160.142 278.301 160.144C278.777 160.149 279.211 160.268 279.604 160.5C279.725 160.571 279.825 160.672 279.894 160.793C279.964 160.914 280 161.051 280 161.191L279.907 174.687C279.908 174.926 279.822 175.158 279.665 175.34C279.509 175.522 279.292 175.643 279.054 175.68L256.607 179.193C256.401 179.227 256.212 179.329 256.07 179.482C255.928 179.635 255.841 179.831 255.823 180.039C255.071 189.029 253.17 195.932 244.297 199.895C232.011 205.387 219.725 198.142 217.297 185.445C217.277 185.34 217.221 185.246 217.139 185.178C217.057 185.11 216.954 185.073 216.847 185.073C216.009 185.062 215.143 185.119 214.249 185.243C201.657 186.95 188.657 188.659 175.249 190.37C173.613 190.58 171.836 190.425 170.386 189.68C168.323 188.61 166.197 188.959 163.987 188.292C162.906 187.966 161.761 187.775 160.551 187.718C160.225 187.702 160.059 187.857 160.054 188.183C160.044 189.724 160.018 191.278 159.977 192.845C159.729 202.99 151.763 210.118 141.935 211.259C132.643 212.344 125.352 206.426 121.396 198.15C118.5 192.105 117.689 185.125 118.961 177.208C118.972 177.135 118.967 177.059 118.944 176.989C118.921 176.918 118.882 176.854 118.83 176.801C118.778 176.748 118.714 176.708 118.644 176.685C118.574 176.661 118.499 176.654 118.425 176.665L112.755 177.534C112.705 177.541 112.653 177.536 112.605 177.519C112.557 177.502 112.513 177.474 112.478 177.436C112.443 177.399 112.418 177.354 112.404 177.305C112.39 177.255 112.388 177.204 112.399 177.153C112.781 175.338 112.833 173.28 112.554 170.979C112.523 170.747 112.401 170.679 112.189 170.778L109.304 172.096C109.061 172.205 108.833 172.182 108.621 172.026C107.698 171.352 106.791 170.638 105.751 170.149C94.7372 164.937 84.6151 160.19 72.8175 155.071C67.45 152.739 62.0438 150.319 56.5988 147.811C56.4278 147.73 56.232 147.72 56.0536 147.783C55.8752 147.845 55.7284 147.975 55.6448 148.144C55.4534 148.532 55.3707 148.917 55.3965 149.3C55.5258 151.446 55.5775 153.424 55.5517 155.234C55.4508 161.889 52.6585 168.994 46.7326 172.375C40.7343 175.793 34.9557 176.466 29.3969 174.392C25.9996 173.12 23.3314 170.868 21.3923 167.636C14.8768 156.77 13.8763 143.467 20.5313 132.624C20.7278 132.303 20.6476 132.086 20.2908 131.972C18.9955 131.577 17.77 131.119 16.5057 131.995C14.1891 133.593 11.4666 134.653 8.33818 135.176C7.75903 135.274 7.66333 135.106 8.05115 134.671C9.10086 133.503 10.0317 132.145 10.8435 130.599C10.9935 130.32 10.9159 130.136 10.6108 130.049C8.05636 129.304 5.4605 128.51 2.82331 127.667C-0.411128 126.636 0.279206 124.239 0.263693 121.586C0.0982218 91.3775 0.0103419 58.9917 0 24.429C0 21.2851 0.149924 18.6944 0.44984 16.6571C1.12465 12.0265 6.79461 9.10229 11.0141 8.49729C15.5749 7.85092 20.4615 7.26659 25.6738 6.74432C49.0828 4.40188 72.6107 2.16801 96.2575 0.0427413C97.5451 -0.0761909 98.7887 0.0530832 99.9883 0.430564C126.138 8.65757 152.011 16.9078 177.607 25.1814C188.445 28.6821 199.292 32.4595 210.145 36.5136C210.875 36.7876 212.216 37.3797 214.171 38.2898C216.839 39.5231 216.56 41.3381 216.56 43.8434C216.56 44.1019 216.684 44.2829 216.932 44.3864C225.806 48.0009 235.284 50.0331 243.614 54.1983C246.686 55.734 248.553 58.1334 249.215 61.3962C249.789 64.2196 250.502 67.1748 251.883 69.6103C254.22 73.7316 256.312 77.9899 258.158 82.3852C258.184 82.4576 258.235 82.5093 258.313 82.5403ZM104.363 51.181C104.342 51.2862 104.298 51.3855 104.235 51.4721C104.171 51.5587 104.09 51.6307 103.995 51.683C103.901 51.7353 103.796 51.7667 103.688 51.7751C103.581 51.7835 103.472 51.7687 103.37 51.7317C99.0653 50.1882 94.4968 48.8463 90.1377 47.2718C61.2526 36.8419 32.1815 26.6344 2.92415 16.6493C2.88968 16.6385 2.85317 16.6358 2.81749 16.6415C2.78181 16.6472 2.74795 16.6612 2.71859 16.6822C2.68924 16.7033 2.66521 16.7309 2.64838 16.7629C2.63156 16.7949 2.62238 16.8303 2.62164 16.8665C2.74574 44.619 2.83107 71.3814 2.87761 97.1535C2.88795 102.433 2.96551 107.568 3.1103 112.558C3.13098 113.266 3.46454 113.765 4.11091 114.055C7.91157 115.746 11.9604 116.963 15.7223 118.437C31.2972 124.549 46.6498 131.093 61.7801 138.069C66.4546 140.225 71.1835 142.332 75.9666 144.39C86.2103 148.796 96.423 153.403 106.605 158.212C106.675 158.245 106.753 158.259 106.83 158.253C106.908 158.248 106.983 158.224 107.048 158.182C107.114 158.14 107.168 158.083 107.205 158.015C107.243 157.947 107.263 157.871 107.264 157.793C107.274 124.063 107.292 91.7627 107.318 60.8921C107.318 55.5246 110.731 51.3206 116.168 50.7311C117.404 50.5967 118.625 50.4726 119.829 50.3588C136.03 48.8386 153.477 47.2226 172.17 45.5111C183.489 44.4717 194.493 43.2798 205.181 41.9353C207.679 41.6251 210.262 41.6561 212.759 41.7104C212.833 41.7117 212.906 41.694 212.971 41.6589C213.035 41.6237 213.09 41.5724 213.129 41.51C213.168 41.4475 213.19 41.3759 213.193 41.3023C213.197 41.2287 213.181 41.1555 213.147 41.0899C212.984 40.7796 212.612 40.4073 212.278 40.2832C206.518 38.1062 200.577 35.9887 194.454 33.9307C177.584 28.2529 160.132 22.2029 142.68 16.7967C129.515 12.722 116.437 8.51538 103.448 4.17694C101.209 3.42715 99.2644 2.97728 97.6149 2.82733C95.6137 2.64117 93.46 2.65668 91.1537 2.87386C69.9735 4.86469 49.0699 6.93564 28.4429 9.08676C21.6637 9.79001 15.0811 10.7622 8.69495 12.0032C7.93999 12.148 7.3195 12.5048 6.83343 13.0736C6.3215 13.6631 6.41716 14.1285 7.12041 14.4697C8.63551 15.204 10.1997 15.8581 11.8131 16.4321C40.4757 26.5672 69.097 36.8186 97.6769 47.1864C99.6833 47.9155 101.612 48.6912 103.463 49.5134C103.715 49.6268 103.934 49.81 104.096 50.0443C104.258 50.2786 104.358 50.5557 104.386 50.8475C104.397 50.9561 104.389 51.0673 104.363 51.181ZM151.375 76.0792C154.291 73.5118 157.782 72.2165 161.187 71.8287C186.799 68.9123 212.49 66.1716 238.263 63.6068C240.83 63.3509 243.397 63.3741 245.957 63.5138C246.104 63.5208 246.248 63.4755 246.365 63.386C246.481 63.2965 246.562 63.1687 246.593 63.0251C247.229 60.0078 245.22 58.2626 242.823 56.9596C238.93 54.8498 234.454 53.2597 230.266 51.9722C224.226 50.1054 218.54 48.05 213.209 45.8058C210.432 44.6423 207.563 44.5337 204.638 44.8285C178.897 47.4398 153.024 49.8831 127.02 52.1583C122.712 52.5358 118.883 53.0762 115.532 53.7794C112.631 54.3844 110.961 56.4011 110.522 59.8295C110.434 60.5172 110.716 60.9748 111.367 61.2023C121.978 64.9048 132.834 68.7054 143.936 72.6043C145.441 73.1318 146.879 73.8453 148.249 74.7451C149.035 75.2622 149.849 75.7353 150.692 76.1645C150.935 76.2886 151.163 76.2602 151.375 76.0792ZM169.253 172.011C171.48 171.802 173.008 173.213 175.241 173.268C176.451 173.293 177.628 173.255 178.771 173.151C184.309 172.634 189.671 172.045 194.857 171.383C211.932 169.206 230.222 166.734 249.727 163.968C257.436 162.871 265.63 161.78 274.307 160.694C274.48 160.674 274.641 160.59 274.758 160.459C274.875 160.327 274.94 160.157 274.943 159.981C275.103 147.824 275.183 135.672 275.183 123.525C275.183 120.609 275.315 117.739 273.694 115.226C271.962 112.553 270.118 109.794 268.164 106.95C266.819 104.985 265.309 102.079 263.634 98.2316C263.194 97.2078 262.582 96.246 261.796 95.3462C261.01 94.4517 260.361 93.42 259.849 92.2514C257.413 86.7288 254.717 81.32 251.759 76.0249C251.019 74.696 250.89 74.7529 251.371 76.1956C253.132 81.4932 255.397 86.4961 258.158 91.437C260.79 96.1426 263.119 101.143 265.146 106.438C266.054 108.811 263.106 111.224 261.237 111.992C260.312 112.369 258.693 112.672 256.382 112.899C231.825 115.304 207.645 117.951 183.843 120.842C179.632 121.354 175.42 121.61 171.262 121.803C170.818 121.824 170.732 122.008 171.006 122.354C174.365 126.62 176.226 130.801 175.87 136.355C175.735 138.516 175.782 140.727 176.009 142.986C176.051 143.441 176.299 143.674 176.754 143.684C179.908 143.777 183.099 143.532 186.325 142.948C190.359 142.224 198.247 141.12 209.99 139.636C223.709 137.898 237.541 136.137 251.487 134.353C256.994 133.648 262.827 133.174 268.42 132.469C269.537 132.329 270.728 132.306 271.995 132.399C272.275 132.419 272.412 132.569 272.406 132.849C272.308 139.111 272.078 145.373 271.716 151.635C271.592 153.721 272.065 155.094 269.343 155.653C266.954 156.149 264.619 156.565 262.339 156.901C252.953 158.292 243.26 159.652 233.26 160.981C230.416 161.359 227.719 161.721 225.17 162.067C213.37 163.66 201.326 165.346 189.04 167.124C184.081 167.843 179.166 168.329 174.295 168.583C174.237 168.586 174.178 168.577 174.124 168.557C174.069 168.537 174.018 168.506 173.976 168.467C173.933 168.427 173.899 168.379 173.875 168.325C173.851 168.272 173.838 168.214 173.838 168.156C173.553 156.506 173.476 145.647 173.605 135.579C173.646 132.063 172.858 129.164 171.239 126.884C164.646 117.592 160.303 107.167 156.417 96.0521C154.935 91.7938 153.105 87.4346 151.522 83.0833C151.111 81.9353 150.421 80.9658 149.645 80.0428C149.475 79.8359 149.407 79.6006 149.443 79.3369C149.531 78.5768 149.089 77.933 148.117 77.4056C145.904 76.1956 144.425 75.4664 143.68 75.2182C132.609 71.5675 121.675 67.6402 110.878 63.4362C110.822 63.4143 110.762 63.4057 110.702 63.4112C110.642 63.4166 110.585 63.4358 110.533 63.4674C110.482 63.499 110.439 63.5421 110.407 63.5932C110.376 63.6443 110.356 63.7021 110.351 63.762C110.258 64.8789 110.211 65.9907 110.211 67.0972C110.139 97.6473 110.098 128.115 110.087 158.499C110.088 158.706 110.147 158.908 110.257 159.082C110.368 159.257 110.526 159.396 110.713 159.485C110.899 159.573 111.107 159.607 111.312 159.582C111.517 159.557 111.711 159.475 111.871 159.345C114.136 157.514 117.611 157.871 119.961 155.924C120.525 155.459 121.241 155.141 122.11 154.97C127.705 153.858 132.299 154.016 135.893 155.443C144.198 158.742 149.475 164.461 151.724 172.6C152.401 175.062 153.097 177.683 153.81 180.465C154.741 184.095 160.24 185.43 163.436 185.476C163.504 185.477 163.571 185.465 163.633 185.439C163.696 185.414 163.753 185.376 163.8 185.329C163.848 185.281 163.886 185.224 163.911 185.161C163.937 185.099 163.949 185.032 163.948 184.964C163.596 171.225 163.55 156.994 163.808 142.273C164.026 129.495 161.383 117.403 155.881 105.996C155.313 104.822 155.181 104.871 155.486 106.143C156.877 111.976 157.73 117.517 158.045 122.765C158.55 131.15 149.482 126.822 145.154 124.945C142.385 123.743 144.068 121.346 144.177 119.205C144.425 114.432 144.358 109.181 143.975 103.452C143.973 103.42 143.965 103.388 143.95 103.36C143.936 103.331 143.916 103.306 143.891 103.285C143.866 103.265 143.837 103.25 143.806 103.241C143.776 103.232 143.743 103.23 143.711 103.235L140.268 103.7C140.045 103.731 139.931 103.858 139.926 104.08C139.838 107.829 140.053 111.717 140.57 115.746C140.803 117.514 142.098 118.678 143.083 120.058C143.342 120.42 143.344 120.787 143.091 121.16L141.951 122.843C141.734 123.158 141.436 123.326 141.059 123.347C139.771 123.425 138.608 123.285 137.568 122.928C137.118 122.773 136.85 122.463 136.762 121.997L135.629 116.335C135.572 116.035 135.389 115.901 135.079 115.932C132.752 116.185 129.957 115.748 126.694 114.621C123.39 113.473 121.127 111.495 119.907 108.687C119.519 107.793 119.32 107.834 119.31 108.811L119.209 120.252C119.209 120.304 119.219 120.356 119.24 120.404C119.26 120.452 119.29 120.496 119.328 120.532C119.366 120.568 119.41 120.597 119.459 120.615C119.508 120.634 119.56 120.642 119.612 120.64C122.498 120.531 125.282 120.875 127.966 121.672C129.414 122.101 130.006 123.06 129.742 124.549C129.608 125.289 129.538 126.015 129.533 126.729C129.517 128.259 128.767 128.839 127.283 128.466C125.158 127.934 123.134 127.675 121.21 127.691C120.812 127.696 120.67 127.507 120.783 127.124C120.897 126.747 121.091 126.431 121.365 126.178C121.717 125.842 122.128 125.746 122.598 125.891L127.834 127.535C127.93 127.566 128.033 127.563 128.126 127.526C128.219 127.489 128.297 127.421 128.346 127.334L128.462 127.117C128.508 127.03 128.535 126.935 128.542 126.837C128.548 126.739 128.533 126.641 128.499 126.55C128.464 126.458 128.411 126.374 128.342 126.305C128.272 126.236 128.189 126.182 128.098 126.147C125.657 125.232 123.229 124.604 120.814 124.262C120.287 124.185 120.098 123.89 120.248 123.378C120.274 123.295 120.292 123.233 120.302 123.192C120.442 122.732 120.763 122.584 121.264 122.75L128.532 125.154C129.018 125.315 129.119 125.183 128.835 124.759L128.455 124.177C128.263 123.891 127.979 123.677 127.648 123.572C125.145 122.791 122.648 122.261 120.155 121.982C119.84 121.946 119.679 122.085 119.674 122.401C119.488 129.795 119.385 137.668 119.364 146.019C119.359 149.303 119.532 152.175 119.884 154.636C119.961 155.179 119.731 155.407 119.193 155.319L118.945 155.28C118.444 155.203 118.182 154.908 118.162 154.396C117.658 141.288 118.317 128.032 118.224 114.962C118.136 102.438 118.038 89.6737 117.929 76.6687C117.919 75.2984 118.405 74.0832 119.387 73.0232C120.853 71.4486 123.909 72.3406 125.724 72.8991C132.359 74.9519 139.223 77.1341 146.318 79.4455C146.748 79.5856 147.14 79.8219 147.466 80.1364C147.791 80.4509 148.04 80.8353 148.195 81.2605C150.553 87.7992 152.693 94.3534 155.424 100.628C157.078 104.445 158.751 108.287 160.442 112.154C163.839 119.926 165.437 127.605 165.523 135.579C165.654 147.888 165.267 161.307 165.817 174.338C165.972 178.092 166.068 181.937 166.104 185.872C166.115 187.19 166.761 188 168.043 188.299L168.338 188.369C169.429 188.623 169.977 188.191 169.983 187.074L170.06 173.919C170.065 173.629 169.967 173.384 169.765 173.182C169.59 173.001 169.38 172.859 169.137 172.756C168.206 172.352 168.245 172.104 169.253 172.011ZM223.859 108.175C223.885 108.043 223.954 107.923 224.055 107.834C224.156 107.744 224.283 107.69 224.417 107.679C232.246 106.919 240.512 106.076 249.215 105.15C252.899 104.763 254.163 105.608 254.024 109.424C254.013 109.786 254.189 109.97 254.551 109.975C256.532 110.027 258.419 109.895 260.213 109.579C262.773 109.122 262.703 107.314 261.904 105.476C257.592 95.5893 253.452 85.6894 249.486 75.7767C248.467 73.2326 247.568 70.6885 246.787 68.1444C246.306 66.5827 245.3 65.833 243.77 65.895C239.369 66.0812 234.537 66.456 229.273 67.0197C206.464 69.4811 183.691 71.9605 160.954 74.4581C159.108 74.6598 157.365 75.151 155.726 75.9318C153.699 76.8936 153.081 78.4475 153.872 80.5935C159.281 95.3255 164.338 107.762 169.044 117.902C169.261 118.373 169.556 118.791 169.928 119.159C170.109 119.345 170.329 119.425 170.588 119.399C173.168 119.146 175.758 118.877 178.359 118.592C197.265 116.529 215.821 114.412 234.028 112.24C240.088 111.516 245.903 110.965 251.472 110.588C252.816 110.495 253.258 109.815 252.798 108.548C252.731 108.356 252.692 108.15 252.682 107.927C252.62 106.547 251.901 105.942 250.526 106.112C239.703 107.498 232.003 108.38 227.427 108.757C226.377 108.84 225.271 108.863 224.107 108.827C223.859 108.817 223.758 108.69 223.805 108.447L223.859 108.175ZM146.783 98.0687L146.806 121.772C146.806 121.908 146.841 122.042 146.907 122.161C146.974 122.28 147.07 122.382 147.186 122.455C149.57 123.939 152.161 125.066 154.958 125.837C155.204 125.906 155.465 125.892 155.703 125.799C155.941 125.705 156.143 125.536 156.277 125.317C156.954 124.195 156.853 123.132 155.974 122.129C155.778 121.907 155.7 121.648 155.742 121.354C156.564 115.862 155.075 110.657 154.09 105.127C153.722 103.059 153.187 101.114 152.484 99.2943C150.173 93.3528 147.815 87.6079 145.41 82.0594C145.294 81.7895 145.12 81.5483 144.902 81.3528C144.683 81.1572 144.425 81.0119 144.146 80.927C137.305 78.8069 130.885 76.7282 124.887 74.6908C123.744 74.3082 122.648 74.1065 121.598 74.0858C121.331 74.0817 121.066 74.1307 120.818 74.2299C120.57 74.3291 120.344 74.4765 120.154 74.6636C119.964 74.8506 119.814 75.0736 119.711 75.3193C119.609 75.565 119.557 75.8287 119.558 76.0947C119.573 84.4562 119.573 93.0658 119.558 101.924C119.55 104.763 119.519 107.082 121.575 109.254C124.863 112.728 130.479 114.241 135.094 114.528C135.149 114.531 135.205 114.521 135.256 114.5C135.307 114.479 135.353 114.447 135.391 114.407C135.429 114.366 135.457 114.318 135.474 114.265C135.491 114.212 135.496 114.156 135.49 114.101C134.988 109.484 134.812 105.231 134.962 101.342C135.009 100.178 135.389 99.1728 136.102 98.3247C137.824 96.277 143.812 96.7967 146.062 97.2078C146.264 97.2441 146.447 97.3502 146.578 97.5075C146.71 97.6649 146.783 97.8635 146.783 98.0687ZM263.075 78.0571L261.043 78.2898C260.971 78.2975 260.9 78.3195 260.837 78.3546C260.773 78.3896 260.716 78.4371 260.671 78.4941C260.625 78.5511 260.592 78.6165 260.572 78.6867C260.552 78.7568 260.546 78.8302 260.555 78.9026L260.57 79.0422C260.854 81.5372 261.276 83.9129 261.741 85.6467C262.207 87.3805 262.678 88.3305 263.052 88.2879L263.362 88.2568C263.548 88.2385 263.704 87.9762 263.822 87.4849C263.94 86.9937 264.017 86.2832 264.049 85.3942C264.08 84.5051 264.066 83.4549 264.007 82.3037C263.948 81.1525 263.845 79.9229 263.704 78.6854L263.688 78.5458C263.68 78.4733 263.658 78.403 263.623 78.3391C263.588 78.2752 263.541 78.2188 263.484 78.1734C263.427 78.1279 263.361 78.0942 263.291 78.0743C263.221 78.0543 263.148 78.0485 263.075 78.0571ZM270.258 138.596L270.514 136.006C270.545 135.669 270.39 135.494 270.048 135.478C267.416 135.369 264.989 135.589 262.765 136.137C262.419 136.22 262.183 136.43 262.059 136.766C261.868 137.272 261.772 137.8 261.772 138.348C261.772 138.413 261.79 138.477 261.823 138.532C261.857 138.588 261.905 138.634 261.963 138.664C262.02 138.694 262.085 138.708 262.15 138.705C262.215 138.701 262.277 138.679 262.331 138.643C264.678 137.04 267.06 137.138 269.475 138.937C269.545 138.989 269.628 139.021 269.715 139.03C269.802 139.04 269.889 139.027 269.969 138.992C270.048 138.958 270.117 138.903 270.168 138.833C270.218 138.764 270.25 138.682 270.258 138.596ZM218.391 145.492C221.214 144.049 223.859 143.459 227.279 143.708C229.306 143.852 230.85 143.84 231.91 143.669C237.303 142.795 242.479 142.133 247.438 141.683C251.229 141.337 254.559 140.946 257.429 140.512C257.575 140.491 257.714 140.433 257.834 140.346C257.955 140.258 258.052 140.142 258.119 140.008C258.719 138.772 259.691 137.756 261.035 136.96C261.93 136.432 261.86 136.161 260.826 136.145C259.099 136.124 257.473 136.207 255.947 136.393C243.351 137.952 230.591 139.977 217.716 141.443C207.229 142.637 196.566 144.119 185.728 145.887C185.47 145.929 185.369 146.079 185.426 146.337L186.194 149.843C186.245 150.071 186.387 150.166 186.62 150.13C196.316 148.506 206.164 147.172 216.164 146.128C216.981 146.045 217.724 145.833 218.391 145.492ZM26.7442 153.442L25.5808 155.094C25.3946 155.358 25.2007 155.363 24.999 155.11C23.7735 153.52 23.8976 152.015 24.425 150.239C24.5116 149.939 24.5196 149.623 24.4483 149.323C23.7657 146.461 24.394 143.537 26.7752 141.955C27.7681 141.288 28.3498 140.465 29.5443 140.054C30.9715 139.563 32.2875 139.589 33.4923 140.132C35.5194 141.042 37.3059 142.366 38.852 144.103C38.8986 144.155 38.9477 144.158 38.9994 144.111H39.0072C39.0485 144.075 39.0537 144.036 39.0227 143.995C36.6415 140.768 32.2513 137.751 28.1637 138.643C25.0068 139.333 22.5945 141.784 21.7723 144.949C20.3089 150.611 21.1001 155.772 24.1458 160.431C27.057 164.888 30.9585 166.095 35.8503 164.053C41.528 161.687 40.7601 152.736 39.4182 148.152C38.5702 145.267 36.8017 142.937 34.1128 141.164C32.5771 140.147 29.0634 139.271 28.1714 141.559C28.0524 141.859 27.8585 142.102 27.5896 142.288C24.3087 144.553 24.5104 146.523 25.3791 150.076C25.4515 150.355 25.6247 150.453 25.8987 150.37C27.1036 149.988 27.675 149.122 27.6129 147.772C27.5974 147.493 27.7215 147.299 27.9852 147.19C28.0887 147.149 28.1947 147.149 28.3033 147.19C28.567 147.299 28.7402 147.493 28.8229 147.772C28.9729 148.279 29.097 148.78 29.1952 149.277C29.2521 149.572 29.4279 149.706 29.7227 149.68C30.126 149.649 30.3613 149.44 30.4285 149.052C30.4751 148.757 30.6431 148.581 30.9327 148.524C31.0619 148.499 31.1887 148.496 31.3128 148.517C31.592 148.558 31.7445 148.718 31.7704 148.998L31.8557 149.913C31.8919 150.27 31.7316 150.448 31.3748 150.448L30.0717 150.464C29.9056 150.465 29.7419 150.503 29.5911 150.572C29.4403 150.642 29.306 150.743 29.1968 150.868C29.0877 150.993 29.0063 151.14 28.9579 151.299C28.9095 151.458 28.8952 151.625 28.916 151.79C29.1642 153.786 30.064 155.27 31.6152 156.242C32.6856 156.914 32.6055 157.395 31.3748 157.685C30.8887 157.804 30.3613 157.651 29.7925 157.227C29.5029 157.015 29.3969 156.733 29.4745 156.382C29.8701 154.621 28.1791 154.031 27.993 152.449C27.9206 151.839 27.9852 151.206 28.1869 150.549C28.3214 150.115 28.1999 150.021 27.8224 150.27C27.3725 150.57 27.057 150.983 26.8761 151.511C26.8334 151.628 26.7495 151.725 26.6406 151.784C26.5318 151.843 26.4056 151.859 26.2866 151.829C25.9091 151.741 25.666 151.495 25.5575 151.092C25.4747 150.787 25.3273 150.751 25.1153 150.983C24.9395 151.175 24.8594 151.41 24.8749 151.689C24.9369 152.79 25.4695 153.235 26.4727 153.023C26.9174 152.93 27.0079 153.07 26.7442 153.442ZM269.551 142.756C269.605 141.74 269.252 140.743 268.57 139.986C267.889 139.23 266.935 138.775 265.918 138.721L265.252 138.686C264.235 138.633 263.239 138.986 262.482 139.667C261.725 140.349 261.27 141.303 261.217 142.32L261.098 144.581C261.045 145.598 261.398 146.595 262.079 147.351C262.761 148.108 263.715 148.563 264.732 148.616L265.398 148.651C266.415 148.705 267.411 148.352 268.168 147.671C268.924 146.989 269.379 146.035 269.433 145.018L269.551 142.756ZM230.832 146.298C230.798 146.303 230.764 146.314 230.735 146.333C230.705 146.351 230.68 146.375 230.66 146.403C230.64 146.432 230.627 146.464 230.62 146.498C230.614 146.532 230.615 146.567 230.622 146.601L231.569 150.774C231.583 150.833 231.619 150.884 231.669 150.918C231.719 150.953 231.78 150.967 231.84 150.96L258.391 147.632C258.423 147.629 258.455 147.618 258.484 147.602C258.512 147.586 258.537 147.564 258.558 147.538C258.578 147.512 258.593 147.483 258.601 147.451C258.61 147.419 258.612 147.386 258.608 147.353L258.08 143.374C258.071 143.311 258.037 143.254 257.986 143.215C257.936 143.176 257.872 143.158 257.809 143.165L230.832 146.298ZM49.6413 145.942C49.5792 146.981 49.8894 147.485 50.572 147.454C50.7389 147.447 50.9002 147.392 51.0358 147.294C51.1714 147.197 51.2754 147.061 51.3348 146.905C51.3943 146.749 51.4066 146.579 51.3703 146.416C51.334 146.253 51.2506 146.104 51.1305 145.988C50.903 145.766 50.6418 145.598 50.3471 145.484C49.9024 145.313 49.6671 145.466 49.6413 145.942ZM183.902 146.763C183.905 146.598 183.875 146.434 183.814 146.281C183.754 146.128 183.663 145.988 183.548 145.869C183.434 145.751 183.296 145.656 183.145 145.59C182.994 145.525 182.831 145.49 182.666 145.487L177.361 145.404C177.028 145.399 176.706 145.526 176.467 145.758C176.227 145.99 176.09 146.307 176.085 146.64L176.028 150.27C176.025 150.435 176.055 150.599 176.116 150.752C176.177 150.906 176.267 151.046 176.382 151.164C176.497 151.283 176.634 151.377 176.785 151.443C176.937 151.509 177.099 151.544 177.264 151.546L182.569 151.63C182.902 151.635 183.224 151.507 183.463 151.275C183.703 151.044 183.84 150.726 183.845 150.393L183.902 146.763ZM229.066 148.608C228.694 147.456 227.813 146.519 226.616 146.005C225.42 145.491 224.007 145.442 222.687 145.868C222.034 146.079 221.423 146.4 220.89 146.814C220.357 147.227 219.913 147.725 219.581 148.277C219.249 148.83 219.038 149.428 218.958 150.036C218.878 150.644 218.932 151.251 219.117 151.822C219.489 152.975 220.37 153.912 221.567 154.426C222.763 154.94 224.176 154.989 225.496 154.563C226.149 154.352 226.76 154.03 227.293 153.617C227.826 153.203 228.271 152.706 228.602 152.153C228.934 151.6 229.145 151.003 229.225 150.394C229.305 149.786 229.251 149.179 229.066 148.608ZM186.457 152.682C186.223 152.715 186.008 152.829 185.851 153.005C185.693 153.181 185.603 153.408 185.596 153.644L185.526 156.056C185.522 156.202 185.549 156.347 185.606 156.481C185.663 156.616 185.749 156.736 185.858 156.834C185.967 156.931 186.095 157.004 186.235 157.046C186.375 157.089 186.522 157.1 186.667 157.08L216.56 153.015C216.788 152.984 216.998 152.875 217.154 152.707C217.311 152.539 217.405 152.322 217.421 152.092L217.599 149.44C217.609 149.291 217.585 149.142 217.53 149.004C217.475 148.866 217.39 148.742 217.28 148.641C217.171 148.54 217.041 148.464 216.899 148.42C216.757 148.376 216.606 148.364 216.459 148.385L186.457 152.682ZM263.494 151.495C262.354 151.208 261.516 150.502 260.57 149.851C260.343 149.696 260.094 149.647 259.825 149.703C257.235 150.257 254.82 150.686 252.581 150.991C246.009 151.886 239.579 152.778 233.291 153.667C232.36 153.799 231.654 153.62 230.739 153.597C230.377 153.587 230.116 153.745 229.955 154.07C229.118 155.73 227.76 156.886 225.852 156.808C223.174 156.71 220.751 156.4 218.584 155.878C217.747 155.681 216.819 155.658 215.8 155.808C205.887 157.297 196.088 158.683 186.403 159.965C186.274 159.981 186.212 160.056 186.217 160.19L186.372 164.495C186.377 164.619 186.442 164.673 186.566 164.658C201.342 162.595 216.265 160.873 231.034 158.491C235.041 157.845 239.266 157.253 243.708 156.715C250.838 155.852 259.05 154.523 268.342 152.728C269.309 152.542 269.914 152.079 270.157 151.34C270.174 151.283 270.175 151.223 270.159 151.165C270.143 151.108 270.112 151.056 270.068 151.016C270.025 150.975 269.971 150.948 269.912 150.937C269.854 150.926 269.794 150.931 269.738 150.952C267.603 151.831 265.521 152.012 263.494 151.495ZM183.851 155.319C183.849 155.255 183.824 155.194 183.779 155.148C183.735 155.102 183.674 155.075 183.611 155.071L176.638 154.574C176.602 154.571 176.566 154.575 176.532 154.587C176.499 154.598 176.468 154.617 176.441 154.641C176.415 154.665 176.394 154.694 176.38 154.727C176.366 154.759 176.358 154.795 176.358 154.83L176.413 164.852C176.413 164.887 176.42 164.921 176.433 164.953C176.447 164.986 176.468 165.014 176.493 165.038C176.518 165.062 176.549 165.081 176.581 165.093C176.614 165.105 176.649 165.11 176.684 165.108L183.921 164.697C183.987 164.693 184.05 164.663 184.095 164.614C184.14 164.564 184.163 164.499 184.161 164.433L183.851 155.319ZM277.34 162.54C276.274 162.892 275.199 163.143 274.113 163.293C245.45 167.223 216.829 171.023 188.249 174.695C182.944 175.377 177.806 175.85 172.837 176.114C172.49 176.135 172.328 176.316 172.348 176.657L172.852 187.477C172.855 187.541 172.871 187.604 172.9 187.662C172.928 187.719 172.968 187.77 173.018 187.812C173.067 187.853 173.125 187.884 173.187 187.903C173.25 187.921 173.315 187.927 173.38 187.919C190.542 185.784 207.645 183.576 224.689 181.295C242.242 178.945 259.756 176.021 277.184 173.438C277.309 173.421 277.424 173.361 277.508 173.267C277.592 173.173 277.639 173.052 277.642 172.926L277.844 162.913C277.844 162.851 277.83 162.789 277.802 162.734C277.775 162.679 277.735 162.631 277.685 162.594C277.636 162.558 277.579 162.534 277.519 162.524C277.458 162.515 277.397 162.52 277.34 162.54ZM130.836 193.706L131.86 193.977C132.066 194.034 132.144 194.166 132.092 194.373C131.885 195.2 132.25 195.898 133.186 196.467C137.436 199.042 140.973 197.39 142.897 193.341C144.766 189.416 144.999 186.81 144.627 182.684C144.503 181.308 144.055 180.047 143.285 178.899C141.589 176.375 139.513 174.527 137.056 173.353C131.2 170.56 125.429 174.842 124.413 180.83C123.327 187.227 124.664 192.542 128.423 196.777C134.349 203.456 143.758 202.424 146.302 193.225C147.336 189.491 147.308 185.879 146.217 182.389C146.19 182.297 146.13 182.217 146.048 182.166C145.967 182.115 145.87 182.095 145.775 182.11L145.573 182.149C145.547 182.153 145.521 182.162 145.499 182.175C145.476 182.189 145.457 182.207 145.441 182.228C145.426 182.249 145.415 182.273 145.41 182.298C145.405 182.323 145.405 182.349 145.41 182.374C146.403 187.439 145.371 193.915 140.997 197.119C136.901 200.113 132.829 198.352 130.518 194.101C130.311 193.719 130.417 193.587 130.836 193.706ZM229.738 190.332C232.112 191.309 234.78 192.162 237.138 190.673C240.204 188.729 241.787 186.172 241.885 183.002C241.889 182.874 241.865 182.747 241.814 182.629C241.762 182.512 241.686 182.408 241.589 182.324C241.493 182.24 241.379 182.178 241.255 182.144C241.132 182.11 241.003 182.103 240.876 182.125C235.307 183.087 229.971 183.721 224.867 184.026C224.742 184.033 224.62 184.07 224.511 184.133C224.403 184.197 224.311 184.285 224.243 184.39C224.176 184.496 224.135 184.615 224.123 184.739C224.111 184.863 224.13 184.988 224.177 185.104C225.128 187.457 226.982 189.199 229.738 190.332Z" fill="#0D0D0D"/>
<path d="M12.8124 115.995C12.3575 116.175 11.8608 116.234 11.3505 116.172C10.8402 116.109 10.3264 115.924 9.83843 115.629C9.35045 115.333 8.89784 114.932 8.50647 114.449C8.1151 113.966 7.7926 113.41 7.55741 112.813C7.08243 111.608 6.99189 110.307 7.30565 109.199C7.61941 108.09 8.31181 107.264 9.23051 106.902C9.68542 106.723 10.1822 106.663 10.6925 106.726C11.2027 106.789 11.7165 106.974 12.2045 107.269C12.6925 107.565 13.145 107.965 13.5364 108.448C13.9278 108.931 14.2503 109.487 14.4855 110.084C14.9605 111.29 15.051 112.59 14.7373 113.699C14.4235 114.807 13.7311 115.634 12.8124 115.995ZM12.6865 113.979C12.9441 113.855 13.1645 113.659 13.3348 113.404C13.5052 113.149 13.6223 112.839 13.6795 112.492C13.7366 112.146 13.7327 111.769 13.6679 111.383C13.6031 110.997 13.4786 110.61 13.3017 110.244C13.1249 109.878 12.899 109.541 12.6369 109.25C12.3749 108.96 12.0819 108.723 11.7746 108.552C11.4673 108.381 11.1517 108.281 10.846 108.256C10.5402 108.231 10.2502 108.282 9.99248 108.407C9.73478 108.531 9.51447 108.727 9.34408 108.982C9.1737 109.237 9.05658 109.547 8.99944 109.893C8.9423 110.24 8.94627 110.617 9.01108 111.003C9.07589 111.389 9.20029 111.776 9.37718 112.142C9.55406 112.507 9.77996 112.845 10.042 113.136C10.304 113.426 10.5971 113.663 10.9044 113.834C11.2117 114.005 11.5272 114.105 11.833 114.13C12.1387 114.155 12.4288 114.104 12.6865 113.979Z" fill="#0D0D0D"/>
<path d="M10.8922 111.155C11.0521 112.062 11.4622 112.748 11.8082 112.687C12.1541 112.626 12.3049 111.841 12.1449 110.934C11.985 110.027 11.5749 109.341 11.229 109.402C10.8831 109.463 10.7323 110.248 10.8922 111.155Z" fill="#0D0D0D"/>
<path d="M176.358 113.962C186.214 112.84 196.225 111.627 206.391 110.324C206.582 110.303 206.66 110.386 206.624 110.572L206.554 110.914C206.536 111.013 206.487 111.105 206.415 111.176C206.343 111.246 206.25 111.293 206.151 111.309C195.426 112.964 184.862 114.401 174.458 115.622C173.434 115.741 172.578 115.5 171.89 114.9C171.627 114.668 171.572 114.399 171.727 114.094C171.852 113.846 172.048 113.747 172.317 113.799C173.708 114.058 175.055 114.112 176.358 113.962Z" fill="#0D0D0D"/>
<path d="M265.006 142.063L263.672 142.761C263.3 142.958 263.116 142.846 263.122 142.428C263.145 141.187 264.262 139.798 265.642 140.194C268.66 141.047 268.427 146.112 264.968 146.034C264.492 146.024 264.44 145.871 264.812 145.577C265.081 145.37 265.381 145.202 265.712 145.073C266.007 144.959 266.203 144.752 266.302 144.452C266.55 143.676 266.483 142.978 266.1 142.358C265.826 141.918 265.461 141.82 265.006 142.063Z" fill="#0D0D0D"/>
<path d="M29.2056 143.74C29.897 144.201 30.6964 144.216 30.9912 143.774C31.2859 143.332 30.9643 142.6 30.2729 142.139C29.5815 141.678 28.7821 141.663 28.4874 142.105C28.1927 142.547 28.5142 143.279 29.2056 143.74Z" fill="#0D0D0D"/>
<path d="M36.7425 149.502L38.0999 150.254C38.1732 150.298 38.2281 150.367 38.2547 150.448C38.2814 150.53 38.2779 150.618 38.245 150.697C38.2121 150.776 38.152 150.84 38.0755 150.879C37.999 150.917 37.9113 150.926 37.8284 150.906L36.3392 150.471C36.2913 150.457 36.241 150.453 36.1916 150.46C36.1421 150.467 36.0946 150.484 36.0522 150.51L34.718 151.309C34.6425 151.353 34.5534 151.368 34.4675 151.351C34.3816 151.334 34.305 151.286 34.2523 151.216C34.1996 151.146 34.1744 151.059 34.1817 150.972C34.1889 150.885 34.228 150.803 34.2914 150.743L35.4161 149.672C35.4514 149.638 35.4793 149.597 35.4979 149.552C35.5166 149.506 35.5258 149.458 35.5247 149.409L35.5015 147.85C35.5055 147.765 35.5392 147.686 35.5965 147.624C35.6538 147.562 35.731 147.523 35.8146 147.513C35.8981 147.503 35.9825 147.522 36.053 147.568C36.1234 147.614 36.1753 147.684 36.1996 147.764L36.5718 149.269C36.5825 149.317 36.6032 149.363 36.6326 149.403C36.662 149.443 36.6994 149.477 36.7425 149.502Z" fill="#0D0D0D"/>
<path d="M33.9339 160.733C35.9893 160.003 36.253 156.676 35.9272 155.047C35.4619 152.689 33.1582 152.844 31.3432 152.767C30.552 152.731 30.5262 152.573 31.2657 152.294C32.7808 151.72 34.5104 152.164 36.4547 153.628C37.0701 154.083 37.3234 154.672 37.2148 155.396C36.8968 157.583 35.9583 161.26 33.4142 161.795C30.172 162.486 26.9453 160.748 26.0223 157.351C25.8982 156.88 25.9913 156.831 26.3015 157.203C28.3725 159.693 30.2573 162.043 33.9339 160.733Z" fill="#0D0D0D"/>
<path d="M135.544 175.679C133.543 175.452 132.239 175.527 131.634 175.904C129.349 177.337 127.955 179.387 127.454 182.055C127.438 182.148 127.384 182.187 127.291 182.171H127.283C127.19 182.156 127.151 182.104 127.167 182.016C127.405 180.103 128.165 178.425 129.447 176.982C131.102 175.126 133.134 174.692 135.544 175.679Z" fill="#0D0D0D"/>
<path d="M135.544 175.679C136.671 175.902 137.569 176.47 138.236 177.385C138.453 177.68 138.411 177.722 138.111 177.51L135.544 175.679Z" fill="#0D0D0D"/>
<path d="M139.981 182.295C140.416 180.945 139.981 179.503 139.097 178.378C139.095 178.373 139.095 178.367 139.097 178.361C139.098 178.356 139.101 178.351 139.105 178.347C139.109 178.343 139.114 178.34 139.119 178.339C139.125 178.337 139.131 178.337 139.136 178.339C140.137 179.146 142.27 181.651 140.625 182.776C139.937 183.252 139.723 183.091 139.981 182.295Z" fill="#0D0D0D"/>
<path d="M134.566 188.028C135.244 188.943 135.487 189.913 135.296 190.936C135.261 191.134 135.297 191.337 135.396 191.51C135.495 191.683 135.652 191.815 135.838 191.883C137.335 192.402 138.421 194.124 137.219 195.466C136.831 195.901 136.593 195.831 136.506 195.257C136.405 194.636 136.692 193.876 136.25 193.318C135.645 192.558 134.859 192.418 133.892 192.899C133.406 193.142 133.31 193.036 133.605 192.581L134.404 191.324C134.559 191.081 134.6 190.82 134.528 190.541C134.321 189.698 134.036 188.917 133.674 188.198C132.379 185.6 135.156 183.483 134 180.853C133.897 180.62 133.961 180.46 134.194 180.372L134.45 180.271C134.719 180.168 134.926 180.243 135.071 180.496C135.52 181.277 135.608 182.11 135.334 182.994C134.931 184.312 134.597 185.649 134.334 187.004C134.261 187.376 134.339 187.718 134.566 188.028Z" fill="#0D0D0D"/>
<path d="M130.021 182.785C130.471 182.102 130.985 181.479 131.564 180.915C131.844 180.641 132.118 180.644 132.387 180.923L132.565 181.109C132.61 181.156 132.645 181.211 132.667 181.272C132.689 181.332 132.698 181.397 132.694 181.462C132.689 181.527 132.671 181.591 132.641 181.649C132.611 181.707 132.569 181.758 132.518 181.8L130.385 183.545C130.343 183.581 130.291 183.604 130.236 183.612C130.181 183.621 130.124 183.614 130.073 183.592C130.022 183.57 129.977 183.535 129.945 183.49C129.912 183.444 129.893 183.391 129.889 183.335C129.868 183.134 129.912 182.95 130.021 182.785Z" fill="#0D0D0D"/>
<path d="M135.648 185.415C135.773 185.962 136.196 186.332 136.593 186.241C136.99 186.15 137.21 185.633 137.084 185.086C136.959 184.539 136.536 184.169 136.139 184.26C135.743 184.351 135.522 184.868 135.648 185.415Z" fill="#0D0D0D"/>
<path d="M130.563 187.213C131.189 187.368 131.321 187.177 130.959 186.639C130.261 185.615 129.488 185.362 128.64 185.879C128.407 186.018 128.291 186.225 128.291 186.499C128.27 188.376 128.578 190.129 129.214 191.758C129.276 191.924 129.253 191.937 129.144 191.797C129.128 191.771 129.105 191.761 129.074 191.766C129.043 191.776 129.022 191.766 129.012 191.735C128.676 190.282 128.099 188.992 127.282 187.864C126.654 186.996 126.592 186.158 126.778 185.181C126.79 185.111 126.818 185.045 126.859 184.988C126.9 184.93 126.953 184.883 127.015 184.849C127.077 184.814 127.145 184.794 127.216 184.79C127.286 184.786 127.357 184.797 127.422 184.824C127.908 185.02 128.384 184.989 128.849 184.731C129.132 184.577 129.464 184.541 129.772 184.63C130.687 184.889 131.515 185.375 132.254 186.088C132.496 186.32 132.637 186.638 132.647 186.973C132.658 187.308 132.536 187.634 132.309 187.88C131.502 188.754 130.623 188.901 129.671 188.322C129.33 188.115 129.196 187.815 129.268 187.422C129.325 187.081 129.521 186.952 129.858 187.034L130.563 187.213Z" fill="#0D0D0D"/>
<path d="M137.158 186.688C136.526 187.651 136.228 188.573 136.493 188.747C136.758 188.921 137.485 188.281 138.118 187.318C138.751 186.355 139.049 185.433 138.784 185.259C138.519 185.085 137.791 185.725 137.158 186.688Z" fill="#0D0D0D"/>
<path d="M140.786 187.419C141.269 187.607 141.779 187.456 141.925 187.081C142.071 186.706 141.799 186.249 141.316 186.061C140.833 185.872 140.323 186.024 140.176 186.399C140.03 186.774 140.303 187.231 140.786 187.419Z" fill="#0D0D0D"/>
<path d="M139.341 191.299C139.559 191.916 140.165 192.265 140.694 192.078C141.223 191.891 141.475 191.238 141.256 190.62C141.037 190.002 140.431 189.653 139.902 189.841C139.373 190.028 139.122 190.681 139.341 191.299Z" fill="#0D0D0D"/>
</svg>
