<svg width="251" height="210" viewBox="0 0 251 210" fill="none" xmlns="http://www.w3.org/2000/svg">
<path d="M25 149.5L17.5 160.5L177.5 163.5L170 148L25 149.5Z" fill="#BDFF32" stroke="black"/>
<path d="M120.795 2.99488C125.268 2.83303 129.499 -1.52521 133.939 0.567211C137.834 4.28963 142.112 8.01206 144.17 13.1564C141.742 12.2894 139.349 11.3067 136.991 10.2663C131.719 14.6824 128.02 20.8787 127.176 27.7224C126.794 32.1731 129.21 36.9129 133.684 38.2076C137.349 38.6931 141.037 38.1498 144.678 37.6874C144.516 32.9246 144.378 28.1617 144.47 23.3988C142.852 23.1792 141.222 22.9596 139.592 22.7746C141.268 22 143.395 21.7573 144.609 20.2544C144.956 17.4568 144.632 14.6361 144.355 11.8501C147.638 11.5726 151.002 11.5264 154.146 12.6824C164.007 15.7922 175.278 9.75767 184.411 15.8037C183.544 16.9597 182.631 18.0927 181.729 19.2256C183.174 24.5664 181.983 30.0691 181.706 35.4678C184.688 35.2251 187.694 35.121 190.665 34.728C192.665 30.2657 194.237 25.5953 195.983 21.0174C197.74 23.1676 197.937 25.8728 197.96 28.5201C198.538 28.5085 199.694 28.4738 200.272 28.4623C202.087 26.7976 203.763 24.6589 206.341 24.2196C219.184 21.2717 231.912 17.8268 244.802 15.1448C248.236 17.4337 250.316 21.1215 250.744 25.2138C249.426 28.1039 247.542 31.1327 244.166 31.7916C235.381 33.6644 226.294 34.069 217.566 36.2077C215.763 38.1383 215.994 41.3983 215.046 43.8491C212.295 58.8081 207.555 73.2585 203.416 87.8476C199.174 100.217 196.434 113.061 191.798 125.292C190.457 132.852 188.157 140.563 182.55 146.112C187.37 152.042 193.035 160.111 189.498 168.018C183.856 176.168 172.804 174.966 164.146 175.29C168.412 179.995 173.625 185.035 173.718 191.844C173.868 199.301 167.706 205.37 160.99 207.566C151.221 210.861 139.661 210.503 130.794 204.896C126.332 201.52 122.251 196.538 122.482 190.642C121.974 184.654 125.442 179.012 130.262 175.741C136.066 172.677 142.817 173.533 149.083 172.585C142.008 172.18 134.91 173.209 127.8 172.885C106.61 172.192 85.4084 172.481 64.2068 172.55C59.0856 172.724 53.9412 172.492 48.8431 173.013C52.2187 176.446 56.9816 178.272 59.8948 182.18C64.727 189.035 62.5884 199.405 55.999 204.387C49.5599 210.341 40.1729 210.329 31.9535 209.763C23.9075 209.034 16.3586 204.607 11.9657 197.821C8.39357 191.22 10.6247 182.157 17.0176 178.122C20.6822 174.747 25.9537 175.382 30.1385 173.163C26.4045 172.33 22.8902 174.423 19.1678 174.18C13.9194 174.064 8.45137 173.255 4.04689 170.203C5.67689 165.822 9.98889 163.51 12.879 160.088C16.3702 156.562 18.821 152.077 22.6474 148.875C24.6705 147.973 26.9248 147.834 29.1097 147.695C65.4669 146.782 101.813 144.412 138.193 145.36C148.204 145.811 158.227 146.077 168.238 146.285C172.7 145.88 178.4 146.539 181.012 142.031C184.665 135.245 185.983 127.534 187.752 120.112C191.266 110.679 194.249 101.038 197.012 91.3388C201.578 78.5647 204.884 65.409 208.133 52.2418C209.485 45.1901 209.867 37.6874 213.3 31.2483C223.728 27.4103 235.473 26.9825 245.149 21.1677C233.704 24.0693 222.051 26.0577 210.503 28.4391C208.237 28.7975 208.179 31.5604 207.208 33.1789C205.266 37.0863 205.277 41.5254 204.503 45.7334C201.486 45.8605 198.457 45.9646 195.44 46.2998C174.469 48.5194 153.383 49.4905 132.366 51.2361C112.749 52.5309 93.1654 54.2302 73.5129 54.8429C57.7099 55.5481 41.9416 57.6405 26.0809 57.0856C19.6071 56.8197 13.1102 57.5943 6.6364 56.8891C6.93697 62.2531 7.68839 67.5939 9.15655 72.7614C11.8501 81.975 11.7229 91.755 14.613 100.934C16.5898 107.13 16.139 114.587 20.9365 119.523C27.4681 123.037 35.1326 123.384 42.3347 124.471C68.5072 127.685 94.5064 132.089 120.691 135.141C134.135 136.366 147.568 138.655 161.105 137.927C165.094 138.632 169.255 139.303 172.955 137.164C164.701 135.222 156.169 134.759 147.811 133.337C123.985 132.101 100.448 127.846 76.7613 125.176C62.4959 123.592 48.4038 120.933 34.1615 119.084C30.3697 118.274 25.3641 118.482 23.2833 114.54C20.8209 109.963 21.029 104.518 19.6186 99.5929C18.2661 95.674 19.0522 91.4313 17.7921 87.4893C16.0118 81.0849 15.6535 74.3567 13.2373 68.1257C12.2547 65.5593 12.4397 62.7733 12.4744 60.0913C16.6592 58.6925 21.1562 58.6694 25.4797 59.4555C29.4912 60.2185 33.5257 59.0856 37.5603 59.1896C56.9007 58.97 76.218 58.0336 95.5353 57.2128C110.124 56.1492 124.702 54.6233 139.337 54.4499C157.88 53.4904 176.319 51.1899 194.827 49.8373C198.029 49.7333 201.116 48.8894 204.064 47.6755C201.104 56.8313 200.63 66.5651 197.312 75.6052C195.833 80.4606 195.185 85.5356 193.567 90.3562C190.157 99.6738 189.266 109.72 185.509 118.945C182.816 126.39 181.243 135.152 174.504 140.158C168.469 144.909 160.4 142.505 153.395 142.47C121.985 139.753 90.7955 134.967 59.5596 130.806C47.5715 128.69 35.2713 128.309 23.5029 125.072C18.9713 123.904 15.2142 120.691 13.0061 116.621C11.5264 111.951 11.2836 106.992 9.73456 102.344C7.19129 94.5757 6.91385 86.3101 4.71738 78.4491C2.76369 71.9291 2.2088 65.0969 0.474748 58.5307C-0.0107856 56.5423 -0.172632 54.4499 0.220419 52.4384C4.65958 46.0918 12.0004 42.7277 19.0175 40.0688C22.9249 38.5313 27.1213 38.0227 31.2946 38.3463C31.4217 34.8436 31.2368 31.3523 31.4217 27.8611C39.433 25.4103 47.7102 23.9306 55.629 21.1908C61.7791 19.214 67.4321 15.5263 74.0331 15.1332C76.5879 20.9596 81.8594 25.8959 81.3276 32.6818C82.7496 35.2366 82.6224 38.5891 84.842 40.67C90.1944 43.1901 97.1422 41.6757 100.703 36.8319C99.3849 35.8724 98.067 34.9245 96.726 33.9997C101.824 34.6355 106.691 32.8552 111.535 31.5951C115.28 35.1788 120.633 35.306 124.991 37.6758C117.835 38.3232 111.778 31.1211 104.703 34.4736C101.073 34.8089 100.957 38.751 99.7201 41.3751C109.685 41.1786 119.546 39.4908 129.511 39.1902C127.234 37.5024 124.459 36.0574 123.465 33.202C121.026 28.7744 123.673 24.0462 124.737 19.6764C123.199 17.9424 121.349 16.5436 119.569 15.087C112.621 16.6939 105.5 16.2546 98.4369 16.4049C97.5005 18.0464 96.5757 19.6995 95.674 21.3642C100.275 21.7688 105.466 21.0868 109.385 24.0578C110.795 25.4566 111.489 27.3987 112.471 29.0981C106.853 26.1849 100.495 22.7399 93.9977 24.8208C90.1597 26.8901 86.8766 29.8264 84.0443 33.1095C83.7553 33.1558 83.1889 33.2598 82.8998 33.3176C82.7264 32.9477 82.3796 32.1963 82.2062 31.8148C86.4604 27.075 93.57 24.1965 94.7145 17.2834C95.0266 12.9483 95.3272 8.38199 93.3619 4.359C102.437 2.84459 111.65 3.46885 120.795 2.99488ZM121.997 4.77517C113.754 5.78092 105.373 4.86765 97.1768 6.25489C102.125 8.30107 107.57 7.69993 112.783 7.59589C118.321 7.5034 123.245 4.10467 128.806 4.26651C131.164 5.05262 133.395 6.19709 135.754 7.00631C134.494 5.56127 133.303 4.03531 131.881 2.75211C128.482 2.75211 125.338 4.33588 121.997 4.77517ZM118.748 10.4282C120.506 13.3529 123.037 16.8904 126.494 17.5493C128.158 14.613 131.314 12.1738 131.823 8.7866C127.488 6.41673 122.91 8.99468 118.748 10.4282ZM100.171 10.6941C100.414 11.9079 100.691 13.0986 101.038 14.2778C104.021 14.5552 107.015 14.3587 109.986 14.0928C108.413 13.0986 106.853 12.116 105.281 11.1333C109.847 12.1507 114.332 13.5032 118.91 14.428C117.65 12.6824 116.332 10.9715 115.026 9.24901C110.043 9.07561 104.899 8.82128 100.171 10.6941ZM147.106 14.6246C150.69 19.2718 158.158 17.4106 161.626 22.5434C156.828 21.0059 152.007 18.8441 146.84 19.7573C146.667 23.6301 147.141 27.4681 147.973 31.2367C149.256 31.4679 150.539 31.7107 151.822 31.965C150.47 32.6355 149.106 33.2829 147.73 33.9187C147.788 35.2251 147.846 36.5429 147.904 37.8608C152.898 37.6065 157.892 37.41 162.874 36.9938C164.816 35.5834 166.365 33.7107 168.169 32.1384C166.92 30.4506 165.66 28.7744 164.365 27.1213C160.851 27.1097 159.221 29.9998 157.603 32.6471C157.337 30.7396 157.244 28.7628 156.308 27.0403C158.967 26.7745 161.498 25.8612 163.903 24.7283C167.036 27.0866 169.695 29.9882 171.209 33.6529C168.816 33.6991 167.221 35.306 165.764 37.0169C170.134 36.2655 174.596 36.2192 178.943 35.306C178.966 32.439 179.012 29.5721 179.116 26.7051C177.093 26.8091 174.77 27.838 173.047 26.312C166.516 22.7861 159.926 19.3643 153.36 15.8846C151.453 14.7748 149.256 14.5899 147.106 14.6246ZM158.03 15.1795C163.094 18.1736 168.273 20.9943 173.255 24.1503C175.775 25.7109 177.995 23.1676 179.833 21.7342C177.325 19.9886 174.423 19.0059 171.718 17.6418C174.365 17.4915 177.036 17.5262 179.694 17.3297C177.833 13.746 173.856 16.2892 170.862 15.8615C166.631 15.1448 162.319 14.8095 158.03 15.1795ZM60.3688 21.5954C56.4729 23.4566 51.9644 23.9769 48.4617 26.6357C54.473 26.6357 59.8139 23.052 65.5016 21.3874C67.5131 23.815 69.409 21.7688 70.4841 19.6186C66.9928 19.5261 63.5247 20.0464 60.3688 21.5954ZM62.8311 31.8148C67.8252 31.4911 72.5649 29.8611 77.4549 28.9825C75.5821 26.7167 74.692 23.8497 73.2007 21.3642C69.4089 24.4508 64.7039 27.0288 62.8311 31.8148ZM47.5253 33.1326C51.8257 32.6587 56.1608 32.0575 60.2878 30.7396C62.4265 28.9131 64.1837 26.6935 65.9062 24.4855C59.6174 26.8323 52.5887 28.4969 47.5253 33.1326ZM43.7797 26.9132C43.8375 28.4391 43.8838 29.9651 43.93 31.4911C44.5774 31.6298 45.8606 31.9072 46.5079 32.0344C46.5311 30.2194 46.5773 28.4045 46.6236 26.5895C45.9068 26.6704 44.4849 26.8323 43.7797 26.9132ZM34.9014 29.6761C37.7105 31.2021 40.3579 32.9823 43.1555 34.543C43.0283 33.9303 42.7624 32.7165 42.6237 32.1153C40.9706 31.7685 39.3059 31.4101 37.6643 31.0287C39.1325 29.7686 40.6931 28.6357 42.2538 27.5028C39.803 28.2079 37.3637 28.9594 34.9014 29.6761ZM64.7617 33.8378C62.2647 35.7106 61.4786 38.8781 60.0335 41.4792C58.9122 40.9705 55.8603 41.6179 56.9122 39.6064C59.1087 37.5256 61.3398 35.4563 62.4496 32.5431C56.8313 32.4737 51.2939 33.8841 46.2883 36.4042C48.7275 40.0457 52.1378 43.4444 56.4267 44.6814C65.3282 45.1901 74.2527 44.4733 83.0154 42.878C81.0733 40.8087 79.3855 38.5197 78.3566 35.8609C77.4781 35.9996 75.7209 36.2886 74.8423 36.4273C75.7787 35.8956 76.7729 35.4794 77.8133 35.1557C77.7671 34.069 77.6977 31.8957 77.6515 30.809C73.3279 31.6992 68.9581 32.4621 64.7617 33.8378ZM34.4043 32.3581C35.699 37.7221 30.6703 41.3058 29.9073 46.3692C37.0863 46.1958 44.2768 45.9184 51.398 44.9357C47.7565 42.693 42.9243 40.7393 42.8087 35.7221C40.7394 35.7684 38.67 35.7799 36.5892 35.8031C36.7279 35.2482 36.9938 34.1268 37.121 33.5719C36.2077 33.1673 35.306 32.7627 34.4043 32.3581ZM186.896 39.4215C185.047 39.1902 183.66 40.4041 182.527 41.7104C185.891 41.9994 189.243 41.5254 192.596 41.2711C196.734 40.878 201.208 41.2942 204.769 38.7394C198.827 37.6412 192.873 39.4099 186.896 39.4215ZM163.579 41.7566C159.418 42.4734 154.62 41.063 151.083 43.9531C159.868 44.6236 168.666 43.2942 177.463 43.0976C179.232 43.4098 180.284 42.011 181.324 40.8434C175.406 39.9763 169.51 41.641 163.579 41.7566ZM20.6013 45.3635C22.5203 45.6871 24.4509 45.9299 26.3814 46.1033C26.3467 45.2247 26.2543 43.4676 26.208 42.589C24.1272 43.0283 22.2313 43.9993 20.6013 45.3635ZM94.3099 45.7796C86.6569 47.1784 78.8884 47.3518 71.1199 47.6177C51.0974 48.6813 31.0749 49.6408 11.064 50.843C9.50336 50.739 8.12768 51.4557 6.83292 52.2187C12.7518 53.5366 18.8788 53.0742 24.9133 53.1551C39.4562 52.5771 54.0222 52.2881 68.5419 51.0974C76.6341 49.6986 84.8651 50.2072 93.0267 49.3518C109.593 47.8952 126.182 46.5542 142.782 45.4097C145.719 45.0398 149.534 45.5715 151.025 42.3231C132.089 42.2306 113.223 44.8317 94.3099 45.7796ZM12.7634 47.4212C15.191 47.7102 17.6187 47.4906 20.0117 47.0281C19.9654 46.2189 19.8845 44.5889 19.8498 43.7681C17.2719 44.5196 14.7864 45.6178 12.7634 47.4212ZM169.521 55.4787C169.614 55.9527 169.81 56.9122 169.903 57.3862C172.053 57.733 176.874 55.3747 176.654 58.8081C174.619 61.2473 170.77 59.2474 168.007 59.6058C167.868 66.5535 166.319 73.3625 164.863 80.1253C167.533 80.819 170.146 81.7438 172.608 82.9923C171.544 84.2061 170.481 85.42 169.406 86.6107C170.122 86.5413 171.579 86.3795 172.307 86.2985C173.463 81.5588 175.937 77.2353 176.735 72.403C177.463 67.2703 177.567 62.0103 178.827 56.9585C185.209 56.1377 191.971 57.1781 198.075 54.9007C188.596 53.6984 179.024 55.1088 169.521 55.4787ZM140.482 57.1087C138.112 56.9353 136.401 58.6231 134.771 60.0566C132.783 59.4324 130.748 58.9353 128.69 58.5191C128.933 69.328 128.401 80.1485 127.095 90.888C126.078 96.0208 125.141 101.489 126.598 106.633C128.343 101.281 128.182 95.5468 129.049 90.021C129.176 82.8767 132.124 76.137 132.181 68.9928C132.551 65.964 132.158 62.5883 133.904 59.9295C134.609 64.9235 134.262 69.9985 133.777 75.0041C132.158 85.2003 132.517 95.6162 130.436 105.743C132.748 106.113 135.072 106.425 137.407 106.749C138.17 105.419 137.06 101.489 139.453 102.229C141.927 103.026 144.123 105.13 146.886 103.94C145.638 103.639 143.141 103.015 141.904 102.703C143.568 101.743 145.256 100.795 146.84 99.697C144.748 99.8126 142.69 100.171 140.597 100.263C138.69 98.1248 140.1 95.0497 140.285 92.5296C142.158 85.9517 142.805 79.108 144.435 72.4724C145.418 67.9986 146.424 63.4207 145.811 58.7966C152.042 57.629 158.158 55.525 164.62 56.2533L164.701 55.1088C156.643 56.0221 148.574 56.7504 140.482 57.1087ZM153.938 59.178C153.846 65.5362 154.181 71.9175 153.672 78.2757C152.99 82.6455 152.054 86.9806 151.568 91.3735C151.51 95.9167 151.695 100.46 151.256 104.98C153.603 104.992 155.95 104.98 158.308 104.945C158.863 100.136 159.568 95.3387 160.678 90.6221C163.475 92.7955 166.215 95.1422 169.625 96.3098C167.81 92.7261 163.845 91.651 160.389 90.3331C160.412 87.5933 160.227 84.8188 160.712 82.1022C162.146 78.5763 164.643 75.4203 164.967 71.5013C165.313 67.2125 165.521 62.9005 165.383 58.6C161.556 58.0682 157.684 58.207 153.938 59.178ZM182.33 58.9815C181.995 69.143 178.955 78.8421 176.423 88.5991C174.342 94.2058 173.359 100.125 173.151 106.09C175.174 106.055 177.209 106.067 179.244 106.055C181.047 100.645 182.076 95.0035 182.816 89.362C181.255 88.5066 179.694 87.6742 178.145 86.8188C180.307 86.8766 182.469 86.9691 184.631 87.0731C187.532 77.8133 186.457 67.7442 190.191 58.7156C187.567 58.7272 184.943 58.8428 182.33 58.9815ZM96.9456 60.3688C97.6508 71.4782 96.8763 82.7611 94.5295 93.6394C96.2636 94.0902 97.9861 94.5989 99.6739 95.1769C99.5236 97.8242 99.4195 100.483 99.0265 103.119C100.726 103.084 102.425 103.026 104.125 102.957C104.078 93.1885 103.35 83.3391 104.934 73.6516C105.35 70.3106 105.015 66.7616 106.98 63.8253C108.98 72.9464 105.327 82.079 106.737 91.2001C107.755 94.9457 107.304 98.8531 107.315 102.691C107.743 102.691 108.587 102.691 109.003 102.691C108.991 93.7434 108.148 84.6917 109.847 75.848C110.298 70.5881 109.847 65.3166 110.113 60.0566C105.72 60.1607 101.327 60.1491 96.9456 60.3688ZM114.217 59.7329C116.298 64.9929 115.176 70.6921 115.292 76.1717C114.91 85.6165 114.298 95.1769 115.696 104.552C117.916 104.841 120.159 104.841 122.401 104.807C122.633 99.9744 122.205 95.0382 123.615 90.3447C125.453 80.1138 126.563 69.7673 126.182 59.3399C122.193 59.3514 118.205 59.4902 114.217 59.7329ZM40.485 62.9236C42.9358 66.1605 47.0628 64.2415 50.3922 64.0565C50.6465 64.6692 51.1436 65.883 51.398 66.4957C47.3172 66.7732 43.2248 67.0506 39.2018 67.8367C38.8781 66.1489 38.5429 64.4495 38.2192 62.7502C31.2368 63.7097 24.1734 63.4554 17.1679 64.149C17.2372 65.6403 17.3181 67.1315 17.3991 68.6113C28.023 69.328 38.6701 68.3454 49.2709 69.1546C53.791 70.2413 56.3227 65.201 60.889 66.1952C62.0797 69.9869 62.415 73.929 62.3572 77.8826C64.3802 77.4433 66.3917 77.0272 68.4148 76.6341C68.2876 71.7326 68.357 66.831 68.3223 61.9294L67.3975 61.4439C58.3804 61.2358 49.4327 62.2068 40.485 62.9236ZM70.38 61.1202C72.1256 66.2067 71.5938 71.6285 71.6517 76.9C73.1314 76.9809 74.6111 77.0503 76.0908 77.1197C75.8827 71.5476 77.4318 66.2067 78.819 60.8774C76.0099 60.889 73.1892 60.9699 70.38 61.1202ZM80.9924 60.8774C79.1659 70.1141 79.3277 79.6051 79.8479 88.969C82.4027 89.9285 86.4489 88.8649 86.1599 92.8879C84.1368 92.7608 82.1022 92.6221 80.0791 92.5527C80.1832 95.489 80.1716 98.4253 79.9635 101.35C82.4721 101.385 84.9691 101.396 87.4777 101.362C88.1829 87.7552 88.8996 74.1602 89.3043 60.5422C86.5298 60.6693 83.7553 60.7734 80.9924 60.8774ZM92.8648 62.6808C93.0614 75.8943 92.229 89.0962 92.3677 102.31C93.096 102.263 94.5527 102.159 95.2809 102.113C92.4949 95.1422 92.8995 87.5702 93.5469 80.2525C93.3504 73.2238 95.9052 66.3801 94.5758 59.3399C94.148 60.1838 93.2926 61.8485 92.8648 62.6808ZM144.389 94.3908C145.002 94.3792 146.239 94.3445 146.852 94.3214C147.788 90.0903 147.88 85.7552 148.262 81.4663C149.395 76.3567 149.626 71.062 148.794 65.8946C146.828 75.3047 145.256 84.8304 144.389 94.3908ZM18.4742 71.1661C20.0695 75.2584 20.6359 79.6514 22.1272 83.7784C23.5376 85.5818 26.4508 84.5761 28.4854 85.0385C28.9594 84.5992 29.8842 83.7206 30.3582 83.2929C32.9246 85.5471 36.4505 84.8188 39.4677 85.9633C39.329 81.6282 38.6007 77.2353 39.0747 72.9001C39.5833 72.6805 40.6006 72.2412 41.0977 72.0216C43.0977 80.345 42.8086 89.1424 45.1785 97.4427C47.5368 97.5583 49.8836 97.7664 52.2188 98.067C51.687 95.3618 51.3055 92.6336 51.0743 89.8823C49.1899 89.5701 47.3056 89.2349 45.4328 88.8071C47.5599 87.0269 50.2882 87.3737 52.843 87.339C53.2361 82.5299 53.1898 77.6861 52.7621 72.8655C54.3458 74.8654 56.5423 75.8249 59.0971 75.7902C59.7445 73.6284 58.9006 70.6459 56.1493 71.143C46.427 71.7441 36.6586 72.1834 26.9479 71.2701C24.1272 71.0274 21.3064 71.0505 18.4742 71.1661ZM54.4383 78.2179C54.369 81.5588 54.5886 84.8882 54.5424 88.2291C56.0799 88.3216 57.629 88.4141 59.1896 88.5066C59.1896 84.6107 59.1434 80.7265 59.0162 76.8422C57.4671 77.2468 55.9181 77.6168 54.4383 78.2179ZM63.2704 78.1023C63.3513 81.8478 63.5132 85.5934 63.5941 89.3505C64.8079 89.3389 67.2472 89.3158 68.4726 89.3042C68.3801 85.6743 68.3338 82.0444 68.2529 78.426C67.0044 78.345 64.5189 78.1832 63.2704 78.1023ZM71.8597 80.0907C71.9407 83.1888 71.9407 86.2985 71.8944 89.4083C72.9926 89.6279 74.0909 89.836 75.1776 90.0557C75.1198 86.5529 75.1082 83.0501 75.166 79.5473C74.0678 79.7323 72.958 79.9057 71.8597 80.0907ZM24.9826 84.9691C23.6185 88.0095 24.5549 91.4198 24.3815 94.622C26.3699 95.1191 28.3698 95.5699 30.3697 96.0092C29.7802 92.8301 29.5721 89.5817 28.786 86.4373C27.6762 85.5356 26.4161 85.05 24.9826 84.9691ZM33.78 87.7667C33.8841 90.4487 33.9419 93.1423 33.9881 95.8358C35.8956 96.1942 37.8146 96.5294 39.722 96.9109C39.4215 93.9284 39.3868 90.9342 39.3406 87.9401C37.4793 87.8708 35.6297 87.813 33.78 87.7667ZM166.909 89.2233C168.261 90.3215 169.625 91.4198 170.978 92.5296C171.082 91.6972 171.302 90.0441 171.417 89.2118C169.914 89.2118 168.412 89.2118 166.909 89.2233ZM54.369 90.3793C54.4037 92.6683 54.4152 94.9572 54.5308 97.2462C56.2071 98.5525 58.392 98.6334 60.3688 99.1305C60.0566 96.3098 59.9179 93.4775 60.1491 90.6452C58.2186 90.5412 56.288 90.4487 54.369 90.3793ZM63.7675 90.1713C63.6635 93.3041 63.7213 96.4485 63.6982 99.5929C64.8426 99.6854 67.1316 99.8704 68.276 99.9629C68.1604 97.7779 68.1257 95.593 68.0911 93.4081C68.5304 90.9805 65.201 91.0383 63.7675 90.1713ZM72.588 92.1828C72.6921 95.0035 72.8192 97.8242 72.7614 100.645C73.6516 100.633 75.4434 100.61 76.3336 100.599C76.2064 97.593 76.1602 94.5989 76.1024 91.5932C74.981 91.8475 73.3973 91.1539 72.588 92.1828ZM162.389 95.4081C164.088 97.7895 166.088 100.09 169.059 100.807C167.984 97.8589 164.92 96.7606 162.389 95.4081ZM21.1908 96.8994C22.5203 97.5468 23.8613 98.1479 25.2138 98.749C25.8612 103.234 27.549 107.454 29.2368 111.627C28.4738 111.997 26.971 112.725 26.2196 113.084C29.8148 115.084 33.6182 113.165 37.3753 113.581C34.7164 109.2 36.0805 103.708 35.9071 98.8068C34.7858 98.6218 33.6644 98.4253 32.5431 98.2172C34.1846 102.506 34.8667 107.327 34.0344 111.847C33.6991 111.962 33.0171 112.205 32.6702 112.321C29.8148 108.148 28.416 103.107 28.8553 98.067C26.3005 97.6277 23.7688 97.1537 21.1908 96.8994ZM37.8377 98.9571C38.6701 103.362 39.4099 107.882 41.6179 111.847C42.0572 107.824 41.4098 103.778 41.5833 99.7432C40.3232 99.4889 39.0862 99.2346 37.8377 98.9571ZM45.9646 99.9629C46.6929 105.593 47.0628 111.35 48.9819 116.737C50.9009 116.818 53.5135 117.673 54.762 115.616C53.6175 113.396 51.2592 112.275 49.4327 110.714C50.7853 110.194 52.1378 109.685 53.4904 109.165C52.4731 106.321 51.1668 103.431 51.8951 100.356C49.9182 100.217 47.9414 100.078 45.9646 99.9629ZM55.6059 100.772C56.0568 104.61 55.9874 108.483 55.6869 112.344C56.577 112.46 58.3688 112.714 59.259 112.841C58.9931 114.182 58.7272 115.535 58.4729 116.876C60.2416 117.141 61.9988 117.384 63.7675 117.604C61.5364 112.691 61.8254 107.13 60.5653 101.951C58.9468 101.408 57.2706 101.13 55.6059 100.772ZM64.8426 101.963C64.9004 107.165 65.1894 112.367 65.0276 117.569C68.2876 117.812 71.5592 118.124 74.8192 118.448C75.1775 113.199 75.3625 107.939 75.3856 102.68C74.507 102.784 72.7499 103.003 71.8713 103.107C71.9638 105.755 71.9175 108.402 71.3973 111.015C68.5766 108.76 67.5362 104.945 69.3858 101.755C67.8714 101.847 66.357 101.893 64.8426 101.963ZM162.169 101.327C163.313 102.333 164.504 103.269 165.683 104.24C164.539 104.46 162.261 104.899 161.117 105.119C163.568 105.778 166.099 105.997 168.62 105.789C167.14 103.466 164.978 101.697 162.169 101.327ZM79.8941 103.038C79.9635 108.367 79.0156 113.592 78.2179 118.841C81.4086 119.407 84.6108 119.974 87.8477 120.182C88.3794 115.222 86.7957 109.847 88.576 105.177C91.258 105.604 93.4313 107.824 96.4139 107.165C96.2867 110.286 96.2982 113.408 96.4023 116.54C94.8763 116.298 93.3504 116.043 91.8244 115.812C92.0787 116.829 92.3215 117.858 92.5758 118.887C96.0555 119.534 99.4889 120.471 102.969 121.13C103.234 115.789 102.344 110.147 104.945 105.211C98.7837 104.818 92.6336 104.275 86.4604 104.205C85.7552 104.714 85.0732 105.257 84.4258 105.835C83.0154 104.749 81.4664 103.847 79.8941 103.038ZM111.015 106.194C111.685 110.645 111.5 115.292 109.905 119.534C112.633 119.534 115.35 119.488 118.078 119.546C117.777 115.696 118.009 111.789 119.315 108.124C121.985 108.46 123.893 110.263 125.754 112.043C125.858 110.876 126.043 108.552 126.147 107.385C121.095 107.096 116.055 106.703 111.015 106.194ZM141.407 107.847C148.065 107.916 154.701 108.413 161.314 109.13C157.915 111.176 153.973 108.864 150.297 109.327C150.643 109.812 151.337 110.795 151.695 111.28C156.701 111.465 161.66 112.043 166.562 113.176C166.585 111.743 166.631 110.309 166.678 108.876C158.319 107.454 149.846 107.234 141.407 107.847ZM129.742 108.656C129.592 111.153 129.361 113.639 128.771 116.078C126.968 116.09 125.176 115.985 123.384 116.055C121.592 117.084 120.078 118.529 118.436 119.777C122.413 120.644 126.055 119.35 129.442 117.361C129.361 120.991 129.21 124.644 128.367 128.205C131.187 128.482 134.031 128.713 136.863 128.621C135.233 125.789 134.713 122.621 135.199 119.407C133.511 119.211 131.835 118.991 130.147 118.76C133.268 116.159 135.014 112.517 136.355 108.783C134.147 108.691 131.95 108.645 129.742 108.656ZM170.885 114.379C174.77 114.413 178.642 114.679 182.515 114.991C182.573 113.777 182.7 111.361 182.758 110.147C179.29 109.315 175.775 108.668 172.319 107.789C171.752 109.963 171.267 112.159 170.885 114.379ZM140.956 109.847C140.99 110.344 141.048 111.327 141.071 111.812C142.678 111.766 144.297 111.72 145.904 111.662C145.915 111.269 145.938 110.46 145.95 110.055C144.285 109.986 142.62 109.916 140.956 109.847ZM38.5776 115.407C41.0515 115.985 43.5716 116.217 46.1033 116.078C44.8317 115.153 43.745 113.812 42.1844 113.384C40.7856 113.604 39.7567 114.714 38.5776 115.407ZM137.199 117.338C139.638 117.188 142.077 117.072 144.516 116.922C144.609 115.928 144.713 114.933 144.805 113.951C143.522 113.673 142.239 113.419 140.956 113.165C139.73 114.587 138.47 115.974 137.199 117.338ZM146.216 125.026C144.204 123.303 142.297 121.5 140.216 119.87C139.985 121.789 139.777 123.708 139.615 125.627C142.1 125.453 144.597 125.407 147.094 125.488C145.869 126.69 144.551 127.812 143.129 128.794C145.603 128.471 148.077 128.829 150.528 129.141C151.233 125.43 151.487 121.685 151.695 117.928C152.562 116.101 153.742 114.448 154.701 112.679C154.007 112.725 152.597 112.829 151.892 112.887C150.32 117.072 148.169 121.003 146.216 125.026ZM162.793 116.39C161.741 118.563 166.597 120.078 166.886 117.673C166.493 116.043 164.053 115.361 162.793 116.39ZM170.458 118.795C173.382 120.263 176.411 121.546 179.197 123.292C180.446 120.806 181.798 118.39 183.174 115.974C178.92 116.864 174.215 116.298 170.458 118.795ZM56.3573 118.089C54.5077 121.581 60.2994 118.136 56.3573 118.089V118.089ZM62.3687 119.026C62.6577 120.586 63.4785 120.852 64.8426 119.812C64.5421 118.251 63.7213 117.997 62.3687 119.026ZM159.371 118.922C158.481 123.338 156.516 127.395 153.88 131.014C155.903 131.118 157.938 131.187 159.961 131.199C161.845 128.066 163.186 124.621 163.487 120.956C162.111 120.274 160.747 119.592 159.371 118.922ZM74.2065 120.448C74.0331 122.02 76.796 122.332 77.559 121.234C77.7555 119.581 75.0041 119.373 74.2065 120.448ZM84.4605 121.407C84.2871 123.06 87.1078 123.095 87.8823 122.078C88.0442 120.436 85.2235 120.344 84.4605 121.407ZM120.852 122.089C120.263 123.927 119.569 125.789 117.835 126.864C120.159 126.644 122.482 126.644 124.806 126.609C124.459 124.945 124.112 123.28 123.754 121.615C122.783 121.766 121.812 121.927 120.852 122.089ZM91.547 123.049C94.6336 123.396 97.7433 123.396 100.841 123.384L100.865 122.413C97.7549 122.494 94.622 122.552 91.547 123.049ZM106.321 121.974C106.217 122.725 105.986 124.24 105.882 124.991C109.026 125.072 112.159 125.407 115.28 125.8C112.182 124.794 109.292 123.292 106.321 121.974ZM169.857 123.627C169.787 125.153 169.718 126.667 169.648 128.193C168.377 129.199 167.117 130.216 165.88 131.268C169.51 131.314 173.151 130.713 176.747 131.465C177.174 129.164 177.694 126.875 178.261 124.609C175.44 124.482 172.643 124.055 169.857 123.627ZM174.053 148.979C177.221 154.019 179.787 159.545 180.677 165.487C173.961 167.66 167.232 164.504 160.446 164.608C138.678 164.042 116.899 164.689 95.1191 164.562C69.0159 164.805 42.9242 164.354 16.8326 164.978C15.4107 165.51 14.0812 166.238 12.7287 166.92C12.6131 167.533 12.3819 168.77 12.2778 169.383C20.7516 169.672 29.1675 168.319 37.6527 168.423C76.9463 168.261 116.24 168.377 155.533 168.331C163.279 168.377 170.99 169.348 178.712 169.753C182.284 170.284 186.92 167.175 185.879 163.232C184.492 157.51 181.197 152.528 178.099 147.615C176.747 148.077 175.394 148.528 174.053 148.979ZM25.1792 151.742C23.133 154.747 21.3411 157.926 19.9308 161.279C28.89 160.597 37.8839 161.001 46.8663 160.805C89.2465 161.233 131.615 160.643 173.995 160.701C172.042 157.071 169.972 152.874 166.504 150.609C155.996 149.175 145.326 149.626 134.736 149.36C98.1941 148.805 61.6751 150.354 25.1792 151.742ZM34.3696 172.608C38.6469 173.625 43.1439 173.163 47.479 172.816C43.1555 172.18 38.7163 172.18 34.3696 172.608ZM145.915 179.694C146.713 179.602 148.297 179.405 149.094 179.313C149.048 177.706 149.002 176.111 148.944 174.515C147.06 175.718 145.476 177.255 145.915 179.694ZM35.2366 179.926C33.7454 179.752 31.7917 178.492 30.6819 180.145C27.6877 183.486 24.0347 187.81 25.9075 192.607C29.5605 199.867 40.0342 201.902 46.3923 197.081C51.5483 192.63 50.6003 184.723 47.9992 179.139C47.2594 179.267 45.7681 179.533 45.0167 179.671C45.3866 183.972 45.086 188.457 42.774 192.237C39.2712 194.85 34.3002 194.006 30.9709 191.509C30.416 187.474 32.4622 183.764 35.1904 181.012L35.9187 181.301C35.202 184.48 34.0806 187.59 34.0112 190.885C36.173 190.839 38.9244 192.052 40.4619 189.891C42.9589 185.602 43.8375 180.585 45.9531 176.111C43.9531 175.775 41.9532 175.325 39.9186 175.348C37.0747 174.851 36.8435 178.388 35.2366 179.926ZM132.598 179.174C128.783 181.567 126.991 186.168 127.257 190.55C127.13 197.07 132.471 202.353 138.262 204.514C146.193 207.404 155.672 207.312 162.932 202.665C166.007 200.272 168.909 196.989 169.082 192.885C169.706 187.174 166.458 181.59 161.73 178.561C163.36 185.22 164.111 192.353 161.51 198.896C156.262 203.416 148.551 203.462 142.216 201.601C137.939 200.318 133.314 196.676 133.869 191.775C133.245 184.55 140.077 180.215 145.395 176.874C141.083 176.874 136.193 176.203 132.598 179.174ZM14.9367 190.607C14.4512 196.029 18.451 200.445 22.6243 203.277C30.0576 207.693 39.433 207.798 47.479 205.104C53.606 203.185 58.6925 197.278 58.0336 190.596C58.7388 185.024 54.0915 181.024 50.1726 177.914C51.7332 182.11 55.1435 185.856 54.4499 190.619C54.7736 195.243 52.1147 200.064 47.6987 201.751C41.0052 204.468 33.0055 204.029 26.7282 200.376C23.2139 197.948 20.0464 193.994 21.0752 189.428C21.2718 183.856 26.7745 181.336 30.5316 178.249C22.8671 175.995 14.2084 182.527 14.9367 190.607ZM150.69 178.272C150.343 182.7 154.539 187.232 151.684 191.382C150.701 193.775 147.973 193.914 145.846 194.619C145.765 193.289 145.591 190.654 145.499 189.324C146.47 189.521 148.412 189.914 149.395 190.099C149.372 188.122 149.337 186.145 149.279 184.168C147.21 182.966 145.048 180.48 142.459 181.972C140.505 184.596 139.083 187.579 137.569 190.469C139.164 197.52 148.412 200.607 154.574 197.59C157.938 194.815 158.886 190.18 158.435 186.029C158.562 181.81 155.221 177.556 150.69 178.272Z" fill="#0D0D0D"/>
<path d="M103.836 40.3463C107.546 38.7047 111.292 36.8435 115.419 36.6007C111.835 38.5197 108.055 40.6122 103.836 40.3463Z" fill="#0D0D0D"/>
<path d="M27.5375 73.166C28.4392 73.0735 30.2657 72.877 31.1674 72.7845C31.2946 75.9058 31.5373 79.0387 31.2483 82.16L30.4622 82.264C28.5085 79.767 28.6241 76.1255 27.5375 73.166Z" fill="#0D0D0D"/>
<path d="M69.9985 112.98C71.6863 111.662 72.7614 114.783 71.5707 115.824C69.9292 117.084 68.7962 113.986 69.9985 112.98Z" fill="#0D0D0D"/>
</svg>
