<svg width="265" height="262" viewBox="0 0 265 262" fill="none" xmlns="http://www.w3.org/2000/svg">
<path opacity="0.4" d="M256.244 210.845L200.237 246.164C197.372 247.971 194.146 249.127 190.786 249.552C187.426 249.977 184.014 249.661 180.79 248.624L119.397 228.89C116.153 227.847 112.718 227.533 109.338 227.97C105.958 228.407 102.716 229.584 99.8433 231.418L54.8962 260.11C53.5173 260.981 51.9542 261.519 50.3311 261.681C48.708 261.843 47.0695 261.624 45.5456 261.042C44.0217 260.46 42.6543 259.532 41.552 258.329C40.4497 257.127 39.6428 255.684 39.1953 254.116L0.402498 118.119C-0.219426 115.938 -0.118445 113.615 0.690321 111.496C1.49909 109.378 2.97215 107.578 4.88908 106.367L61.4939 70.5925C64.6321 68.6091 68.1674 67.3387 71.8503 66.8709C75.5331 66.4032 79.2738 66.7495 82.8082 67.8855L142.242 86.9902C145.789 88.1304 149.544 88.4752 153.239 88C156.935 87.5249 160.48 86.2416 163.624 84.2413L206.186 57.1555C207.565 56.2783 209.129 55.735 210.755 55.569C212.381 55.4029 214.023 55.6187 215.55 56.1991C217.078 56.7795 218.449 57.7084 219.554 58.9121C220.659 60.1157 221.468 61.5607 221.916 63.1321L260.703 199.11C261.323 201.285 261.225 203.603 260.421 205.717C259.618 207.832 258.153 209.63 256.244 210.845Z" fill="#CCCDCF"/>
<path d="M258.431 196.412L210.605 226.846C207.462 228.846 203.916 230.13 200.221 230.605C196.525 231.08 192.771 230.735 189.223 229.595L129.786 210.49C126.251 209.354 122.511 209.008 118.828 209.476C115.145 209.943 111.61 211.214 108.471 213.197L57.0815 245.676C55.7025 246.548 54.1395 247.086 52.5164 247.247C50.8933 247.409 49.2547 247.191 47.7308 246.609C46.207 246.027 44.8396 245.098 43.7373 243.896C42.635 242.694 41.8281 241.251 41.3805 239.682L2.58818 103.686C1.96615 101.505 2.06703 99.1818 2.87573 97.0632C3.68442 94.9446 5.15744 93.1449 7.07434 91.9334L63.6763 56.1576C66.8146 54.1743 70.3499 52.904 74.0328 52.4363C77.7156 51.9687 81.4562 52.315 84.9906 53.451L144.428 72.5561C147.975 73.6963 151.73 74.0411 155.426 73.5659C159.121 73.0907 162.667 71.8073 165.81 69.8068L208.372 42.7214C209.751 41.8442 211.316 41.301 212.941 41.1349C214.567 40.9689 216.209 41.1846 217.736 41.765C219.264 42.3454 220.635 43.2744 221.74 44.478C222.845 45.6816 223.654 47.1266 224.102 48.698L262.889 184.675C263.51 186.85 263.411 189.168 262.608 191.283C261.805 193.398 260.34 195.197 258.431 196.412Z" fill="white"/>
<path d="M71.2701 185.066L71.9215 186.952L73.8092 186.306L113.963 172.558L121.615 194.15C121.05 194.446 120.352 194.814 119.555 195.232C117.398 196.365 114.524 197.879 111.656 199.401C108.789 200.922 105.921 202.454 103.781 203.624C102.713 204.207 101.813 204.708 101.181 205.074C100.871 205.254 100.599 205.416 100.398 205.547C100.307 205.605 100.178 205.692 100.057 205.789C100.046 205.798 100.029 205.812 100.007 205.831L51.6207 236.413L28.3082 154.689L58.6989 148.64L71.2701 185.066Z" fill="#BDFF32" fill-opacity="0.2" stroke="#BDFF32" stroke-width="4"/>
<path d="M258.431 196.412L210.605 226.846C207.462 228.846 203.916 230.13 200.221 230.605C196.525 231.08 192.771 230.735 189.223 229.595L129.786 210.49C126.251 209.354 122.511 209.008 118.828 209.476C115.145 209.943 111.61 211.214 108.471 213.197L57.0815 245.676C55.7025 246.548 54.1395 247.086 52.5164 247.247C50.8933 247.409 49.2547 247.191 47.7308 246.609C46.207 246.027 44.8396 245.098 43.7373 243.896C42.635 242.694 41.8281 241.251 41.3805 239.682L2.58818 103.686C1.96615 101.505 2.06703 99.1818 2.87573 97.0632C3.68442 94.9446 5.15744 93.1449 7.07434 91.9334L63.6763 56.1576C66.8146 54.1743 70.3499 52.904 74.0328 52.4363C77.7156 51.9687 81.4562 52.315 84.9906 53.451L144.428 72.5561C147.975 73.6963 151.73 74.0411 155.426 73.5659C159.121 73.0907 162.667 71.8073 165.81 69.8068L208.373 42.7214C209.751 41.8442 211.316 41.301 212.941 41.1349C214.567 40.9689 216.209 41.1846 217.736 41.765C219.264 42.3454 220.635 43.2744 221.74 44.478C222.845 45.6816 223.654 47.1266 224.102 48.698L262.889 184.675C263.51 186.85 263.411 189.168 262.608 191.283C261.805 193.398 260.34 195.197 258.431 196.412Z" stroke="#0D0D0D" stroke-width="3" stroke-miterlimit="10"/>
<path d="M79.9683 179.518C79.9683 179.518 80.6972 179.328 81.9256 178.969" stroke="#0D0D0D" stroke-width="4" stroke-linecap="round" stroke-linejoin="round"/>
<path d="M87.8389 177.076C96.4761 174.072 109.151 168.558 109.303 162.036C109.506 153.372 67.5155 110.025 90.0903 107.405C165.458 98.6573 131.689 161.342 166.062 159.941C180.583 159.349 153.728 139.383 195.219 124.952C201.37 122.812 198.314 107.17 196.251 98.9917" stroke="#0D0D0D" stroke-width="3" stroke-linecap="round" stroke-linejoin="round" stroke-dasharray="10.18 15.26"/>
<path d="M195.453 95.9901C195.109 94.7629 194.883 94.0376 194.883 94.0376" stroke="#0D0D0D" stroke-width="4" stroke-linecap="round" stroke-linejoin="round"/>
<path d="M77.343 191.944C83.6211 191.944 88.7104 186.855 88.7104 180.577C88.7104 174.299 83.6211 169.209 77.343 169.209C71.065 169.209 65.9757 174.299 65.9757 180.577C65.9757 186.855 71.065 191.944 77.343 191.944Z" fill="#BDFF32"/>
<path d="M77.3431 169.209C75.6004 169.208 73.881 169.609 72.318 170.379C70.755 171.15 69.3904 172.27 68.3301 173.653C70.5648 172.134 73.2675 171.461 75.9536 171.754C78.6396 172.048 81.1332 173.289 82.9873 175.254C84.8413 177.22 85.9343 179.782 86.0705 182.48C86.2066 185.179 85.3768 187.838 83.73 189.98C85.7411 188.614 87.2612 186.639 88.0672 184.345C88.8732 182.052 88.9225 179.56 88.208 177.236C87.4936 174.912 86.0529 172.879 84.0975 171.434C82.1421 169.989 79.7751 169.21 77.3439 169.209H77.3431Z" fill="#BDFF32"/>
<path d="M77.343 191.944C83.6211 191.944 88.7104 186.855 88.7104 180.577C88.7104 174.299 83.6211 169.209 77.343 169.209C71.065 169.209 65.9757 174.299 65.9757 180.577C65.9757 186.855 71.065 191.944 77.343 191.944Z" stroke="#0D0D0D" stroke-width="3" stroke-miterlimit="10"/>
<path d="M82.5231 79.1559L115.126 85.3358L107.639 72.1763L80.6548 62.7618C79.0941 62.2174 77.4414 61.9857 75.7912 62.0801C74.1409 62.1745 72.5255 62.593 71.037 63.3118L11.7447 99.3276C11.4263 99.5306 11.1816 99.8306 11.0469 100.183C10.9122 100.536 10.8946 100.923 10.9966 101.287L20.5588 134.808L46.6277 128.363L41.8401 109.159L82.5231 79.1559Z" fill="#BDFF32" fill-opacity="0.2" stroke="#BDFF32" stroke-width="4" stroke-linecap="round" stroke-linejoin="round"/>
<path d="M134.191 162.171L152.796 166.856L161.791 187.471L141.748 184.185L134.191 162.171Z" fill="#BDFF32" fill-opacity="0.2" stroke="#BDFF32" stroke-width="4" stroke-linecap="round" stroke-linejoin="round"/>
<path d="M195.228 100.417C180.114 100.417 167.862 96.034 167.862 90.6269C167.862 85.2198 180.114 80.8362 195.228 80.8362C210.342 80.8362 222.594 85.2198 222.594 90.6269C222.594 96.034 210.341 100.417 195.228 100.417Z" fill="#F2F2F3"/>
<path d="M203.815 155.89L237.954 141.029L251.44 182.116L196.16 213.53L186.028 184.935L207.643 172.777L203.815 155.89Z" fill="#BDFF32" fill-opacity="0.2" stroke="#BDFF32" stroke-width="4" stroke-linecap="round" stroke-linejoin="round"/>
<path d="M235.52 42.8895C235.52 19.3788 216.437 0.446484 193.314 1.54555C172.61 2.52991 154.959 20.1679 154.959 41.4585C154.959 72.2572 195.229 96.0051 195.229 96.0051C195.229 96.0051 235.52 72.2572 235.52 42.8895Z" fill="#BDFF32"/>
<path d="M209.936 84.0874C206.761 86.5646 202.845 87.9036 198.818 87.8897C194.791 87.8759 190.885 86.5099 187.727 84.011C175.809 74.5741 158.571 57.4401 158.571 37.2904C158.601 28.7351 161.431 20.4247 166.628 13.6292C159.48 20.8475 154.959 30.6846 154.959 41.4585C154.959 72.2572 195.228 96.0051 195.228 96.0051C195.228 96.0051 211.651 86.3242 223.527 71.6808C219.335 76.1725 214.79 80.3213 209.936 84.0874Z" fill="#BDFF32"/>
<path d="M193.314 1.54555C186.054 1.91958 179.035 4.27185 173.016 8.34781C177.756 6.06215 182.906 4.75024 188.162 4.48968C211.285 3.39143 230.368 22.3225 230.368 45.8337C230.368 68.8604 205.599 88.4313 194.902 95.8095C195.111 95.9372 195.227 96.0064 195.227 96.0064C195.227 96.0064 235.519 72.2572 235.519 42.8895C235.52 19.3788 216.437 0.446484 193.314 1.54555Z" fill="#BDFF32"/>
<path d="M195.228 58.7223C191.949 58.7224 188.744 57.7502 186.018 55.9286C183.291 54.107 181.166 51.518 179.912 48.4887C178.657 45.4595 178.328 42.1262 178.968 38.9104C179.608 35.6946 181.187 32.7406 183.505 30.4221C185.823 28.1036 188.777 26.5247 191.993 25.885C195.209 25.2453 198.542 25.5736 201.572 26.8283C204.601 28.083 207.19 30.2079 209.012 32.9341C210.833 35.6603 211.805 38.8655 211.805 42.1444C211.805 46.541 210.059 50.7576 206.95 53.8666C203.841 56.9755 199.625 58.7222 195.228 58.7223Z" fill="white"/>
<path d="M195.228 58.7223C191.949 58.7224 188.744 57.7502 186.018 55.9286C183.291 54.107 181.166 51.518 179.912 48.4887C178.657 45.4595 178.328 42.1262 178.968 38.9104C179.608 35.6946 181.187 32.7406 183.505 30.4221C185.823 28.1036 188.777 26.5247 191.993 25.885C195.209 25.2453 198.542 25.5736 201.572 26.8283C204.601 28.083 207.19 30.2079 209.012 32.9341C210.833 35.6603 211.805 38.8655 211.805 42.1444C211.805 46.541 210.059 50.7576 206.95 53.8666C203.841 56.9755 199.625 58.7222 195.228 58.7223Z" stroke="#0D0D0D" stroke-width="3" stroke-miterlimit="10"/>
<path d="M235.52 42.8895C235.52 19.3788 216.437 0.446484 193.314 1.54555C172.61 2.52991 154.959 20.1679 154.959 41.4585C154.959 72.2572 195.229 96.0052 195.229 96.0052C195.229 96.0052 235.52 72.2572 235.52 42.8895Z" stroke="#0D0D0D" stroke-width="3" stroke-linecap="round" stroke-linejoin="round"/>
</svg>
