<svg width="185" height="41" viewBox="0 0 185 41" fill="none" xmlns="http://www.w3.org/2000/svg">
<path d="M43.0582 5.91163V11.3494C41.8149 11.083 40.4162 11.0296 38.9139 11.5627C35.7021 12.7357 34.7696 15.8811 34.7696 19.5064V30.2223H29.7965V6.33795H34.7696V10.1232C36.2719 7.4042 38.8103 5.91163 43.0582 5.91163Z" fill="white"/>
<path d="M68.3374 18.2803C68.3374 25.1044 62.9499 30.6489 56.319 30.6489C49.6882 30.6489 44.3007 25.1044 44.3007 18.2803C44.3007 11.4562 49.6882 5.91162 56.319 5.91162C62.9499 5.91162 68.3374 11.4562 68.3374 18.2803ZM63.3643 18.2803C63.3643 14.1218 60.1525 10.6032 56.319 10.6032C52.4856 10.6032 49.2738 14.1218 49.2738 18.2803C49.2738 22.4388 52.4856 25.9573 56.319 25.9573C60.1525 25.9573 63.3643 22.4388 63.3643 18.2803Z" fill="#BDFF32"/>
<path d="M88.4365 23.8248L91.1302 27.6635C89.0581 29.5293 86.261 30.6489 83.2561 30.6489C76.6253 30.6489 71.238 25.1044 71.238 18.2803C71.238 11.4562 76.6253 5.91162 83.2561 5.91162C86.261 5.91162 89.0581 7.03098 91.1302 8.89706L88.4365 12.7357C87.1415 11.3494 85.173 10.6032 83.2561 10.6032C79.423 10.6032 76.2109 14.1218 76.2109 18.2803C76.2109 22.4388 79.423 25.9573 83.2561 25.9573C85.173 25.9573 87.1415 25.2109 88.4365 23.8248Z" fill="white"/>
<path d="M110.971 23.1849L113.82 26.9171C111.644 29.2095 108.588 30.6489 105.221 30.6489C98.5899 30.6489 93.2024 25.1044 93.2024 18.2803C93.2024 11.4562 98.5899 5.91162 105.221 5.91162C110.401 5.91162 114.286 9.16377 115.581 14.3351L100.196 23.505C101.18 24.8911 103.252 25.9573 105.221 25.9573C107.656 25.9573 109.521 24.6778 110.971 23.1849ZM98.1755 18.2803C98.1755 18.76 98.2272 19.1866 98.2791 19.6663L109.779 12.8422C109.002 11.776 107.707 10.6032 105.221 10.6032C101.387 10.6032 98.1755 14.3351 98.1755 18.2803Z" fill="white"/>
<path d="M131.744 5.91163V11.3494C130.501 11.083 129.102 11.0296 127.6 11.5627C124.388 12.7357 123.456 15.8811 123.456 19.5064V30.2223H118.482V6.33795H123.456V10.1232C124.958 7.4042 127.496 5.91163 131.744 5.91163Z" fill="white"/>
<path d="M179.816 30.2223V27.1301C178.365 28.8897 176.138 30.6489 172.615 30.6489C167.694 30.6489 164.068 27.3434 164.068 22.5987C164.068 15.6147 172.253 12.8422 179.66 16.2543C179.505 13.4288 178.314 10.6032 174.428 10.6032C172.408 10.6032 170.44 11.2429 169.041 12.1492L166.969 8.47044C168.471 7.29769 171.216 5.91162 174.636 5.91162C180.748 5.91162 184.789 9.43019 184.789 19.0267V30.2223L179.816 30.2223ZM169.041 22.7586C169.041 24.6244 170.647 25.9573 173.081 25.9573C176.19 25.9573 179.401 23.5581 179.816 20.4662C176.086 18.4936 169.041 18.76 169.041 22.7586Z" fill="white"/>
<path d="M142.478 25.2417H153.46C155.791 25.2417 156.309 24.0155 156.413 23.6423L161.127 24.7619C160.712 26.6811 158.589 30.2534 153.46 30.2534H142.478C141.701 30.2534 139.888 30.4664 139.888 32.226C139.888 34.5184 143.928 35.3179 146.622 35.3179C150.3 35.3179 153.823 31.0529 153.874 30.9995L157.604 34.1452C157.397 34.4116 152.579 40.3294 146.622 40.3294C140.872 40.3294 135.07 37.8236 135.07 32.226C135.07 27.1078 139.525 25.2417 142.478 25.2417ZM140.509 6.28857V12.3933C140.509 15.6987 143.566 18.4176 147.295 18.4176C150.973 18.4176 154.03 15.6987 154.03 12.3933V6.28857H158.847V12.3933C158.847 18.4176 153.667 23.3759 147.295 23.3759C140.872 23.3759 135.691 18.4176 135.691 12.3933V6.28857H140.509Z" fill="white"/>
<path d="M7.40773 25.2417H18.39C20.7213 25.2417 21.2394 24.0156 21.343 23.6423L26.0569 24.762C25.6425 26.6812 23.5187 30.2534 18.39 30.2534H7.40773C6.63082 30.2534 4.81785 30.4665 4.81785 32.226C4.81785 34.5184 8.85822 35.318 11.552 35.318C15.2302 35.318 18.7528 31.053 18.8045 30.9996L22.5343 34.1452C22.3271 34.4116 17.5095 40.3294 11.552 40.3294C5.80197 40.3294 0 37.8237 0 32.226C0 27.1078 4.45508 25.2417 7.40773 25.2417Z" fill="white"/>
<path d="M22.0673 6.28994C20.0316 3.15172 16.3822 1.04175 12.2247 1.04175C8.03447 1.04175 4.37617 3.15172 2.33752 6.28994C1.24985 7.96306 0.622803 9.93039 0.622803 12.0225V12.394C0.622803 14.4891 1.24985 16.4565 2.33752 18.1296C4.37617 21.2678 8.03742 23.3748 12.2247 23.3748C16.3793 23.3748 20.0287 21.2678 22.0643 18.1296C23.152 16.4565 23.7791 14.4891 23.7791 12.394V12.0225C23.7791 9.93039 23.152 7.96306 22.0673 6.28994ZM12.2247 18.4178C8.49509 18.4178 5.44008 15.6987 5.44008 12.394V12.0225C5.44008 8.71791 8.49509 5.99871 12.2247 5.99871C15.9038 5.99871 18.9588 8.71791 18.9588 12.0225V12.394C18.9588 15.6987 15.9038 18.4178 12.2247 18.4178Z" fill="white"/>
<path d="M18.8059 4.97311V7.71611C21.5525 7.71611 23.779 5.48957 23.779 2.74299V0C21.0325 0 18.8059 2.22654 18.8059 4.97311Z" fill="white"/>
</svg>
