<svg width="257" height="296" viewBox="0 0 257 296" fill="none" xmlns="http://www.w3.org/2000/svg">
<path d="M244.502 186.146C242.578 185.147 240.727 184.011 238.965 182.747C235.446 180.224 232.302 177.214 229.627 173.808C228.3 172.118 227.099 170.333 226.032 168.468C225.141 166.892 224.351 165.262 223.666 163.587C222.997 161.953 222.434 160.278 221.981 158.571C221.539 156.904 221.21 155.209 220.995 153.497C220.785 151.821 220.692 150.132 220.719 148.443C220.721 148.347 220.723 148.253 220.725 148.159C220.727 148.065 220.73 147.97 220.732 147.875C220.734 147.779 220.738 147.685 220.743 147.593L220.757 147.312C220.676 147.376 220.596 147.44 220.515 147.505L220.274 147.701L220.035 147.898L219.796 148.096L219.642 148.223L219.488 148.351L219.335 148.48L219.184 148.609L219.393 148.364L219.607 148.11C219.678 148.029 219.749 147.948 219.82 147.867C219.891 147.786 219.963 147.706 220.037 147.627L220.21 147.532L220.382 147.438L220.55 147.345L220.72 147.251L220.731 147.248L220.742 147.243L220.752 147.238L220.763 147.234L220.832 147.196L220.9 147.158L220.967 147.12L221.032 147.082L221.33 146.922L221.626 146.765L221.922 146.609L222.219 146.451L221.987 146.336L221.424 146.055L221.428 146.053C221.476 146.074 221.524 146.096 221.572 146.119C221.619 146.142 221.667 146.164 221.715 146.185C221.764 146.208 221.811 146.23 221.858 146.253C221.905 146.275 221.953 146.298 222.001 146.322L222.055 146.345L222.11 146.368L222.166 146.392C222.185 146.4 222.203 146.408 222.22 146.418L222.215 146.508L222.208 146.592L222.203 146.675L222.199 146.76C221.991 149.605 222.139 152.466 222.64 155.274C223.155 158.166 224 160.988 225.159 163.686C226.357 166.479 227.854 169.133 229.625 171.603C231.454 174.158 233.55 176.51 235.877 178.621C238.219 180.716 240.774 182.561 243.5 184.124C244.846 184.896 246.233 185.596 247.653 186.22C249.062 186.839 250.503 187.38 251.97 187.843C251.905 187.939 251.839 188.034 251.772 188.127C251.704 188.221 251.636 188.315 251.567 188.407C251.498 188.5 251.428 188.592 251.357 188.683C251.286 188.775 251.215 188.866 251.142 188.956C250.576 188.768 250.013 188.569 249.454 188.358C248.894 188.146 248.337 187.923 247.783 187.689C247.228 187.454 246.678 187.208 246.132 186.95C245.585 186.693 245.042 186.425 244.502 186.146Z" fill="white"/>
<path d="M206.412 207.412C205.782 206.471 205.187 205.513 204.628 204.537C204.068 203.561 203.546 202.571 203.06 201.568C202.574 200.565 202.125 199.549 201.713 198.52C201.301 197.492 200.928 196.454 200.594 195.407C200.423 194.852 200.266 194.295 200.121 193.736C199.977 193.177 199.847 192.617 199.73 192.056C199.613 191.496 199.509 190.933 199.418 190.37C199.327 189.807 199.251 189.244 199.188 188.682C199.156 188.419 199.128 188.157 199.103 187.894C199.077 187.631 199.055 187.368 199.035 187.105C199.016 186.842 198.999 186.579 198.986 186.317C198.972 186.055 198.961 185.793 198.953 185.531C199.078 185.131 199.206 184.733 199.336 184.336C199.466 183.94 199.599 183.545 199.733 183.151C199.867 182.758 200.004 182.367 200.143 181.977C200.282 181.587 200.423 181.198 200.567 180.812C200.536 181.136 200.509 181.461 200.487 181.786C200.465 182.112 200.447 182.439 200.434 182.767C200.421 183.095 200.412 183.423 200.408 183.753C200.404 184.082 200.405 184.412 200.41 184.743C200.41 184.923 200.411 185.103 200.415 185.283C200.419 185.463 200.423 185.644 200.429 185.824C200.436 186.004 200.444 186.184 200.453 186.365C200.462 186.545 200.473 186.725 200.485 186.905C200.624 188.927 200.941 190.933 201.433 192.9C201.931 194.89 202.581 196.838 203.377 198.729C204.188 200.656 205.124 202.528 206.178 204.334C207.25 206.171 208.422 207.948 209.688 209.657C211.052 211.501 212.493 213.297 214.012 215.044C215.531 216.792 217.108 218.491 218.742 220.143C220.378 221.793 222.062 223.392 223.794 224.94C225.525 226.488 227.286 227.982 229.076 229.423C230.908 230.903 232.778 232.326 234.685 233.693C236.592 235.06 238.53 236.367 240.499 237.614C242.467 238.861 244.465 240.047 246.492 241.173C248.519 242.298 250.569 243.359 252.643 244.356C252.738 244.402 252.824 244.466 252.896 244.543C252.967 244.619 253.024 244.706 253.066 244.801C253.107 244.895 253.131 244.996 253.137 245.098C253.144 245.201 253.13 245.304 253.097 245.402C253.087 245.444 253.072 245.486 253.053 245.525C253.035 245.563 253.012 245.599 252.987 245.633C252.961 245.667 252.932 245.697 252.901 245.725C252.869 245.752 252.834 245.775 252.797 245.795C252.758 245.813 252.717 245.826 252.675 245.833C252.633 245.841 252.59 245.843 252.548 245.84C252.504 245.837 252.461 245.829 252.419 245.816C252.376 245.803 252.334 245.785 252.295 245.763C252.039 245.64 251.783 245.517 251.527 245.393C251.271 245.269 251.015 245.144 250.76 245.019C250.505 244.893 250.251 244.767 249.996 244.639C249.742 244.511 249.488 244.381 249.234 244.25C247.121 243.164 245.036 242.013 242.98 240.797C240.923 239.581 238.897 238.302 236.902 236.959C234.908 235.617 232.95 234.214 231.028 232.751C229.106 231.288 227.224 229.767 225.383 228.187C223.605 226.667 221.849 225.095 220.136 223.469C218.422 221.844 216.751 220.166 215.143 218.435C213.535 216.704 211.99 214.921 210.527 213.083C209.064 211.245 207.687 209.356 206.412 207.412Z" fill="white"/>
<path d="M246.219 56.3667L244.705 56.5634L254.854 18.4619C255.601 15.9177 255.723 13.2303 255.208 10.6289C254.762 8.50334 253.657 6.57239 252.052 5.11006C250.37 3.64793 248.31 2.69124 246.108 2.35036C243.426 1.93492 240.688 2.05754 238.054 2.71108L169.082 18.4234C166.675 19.0076 164.37 19.9558 162.249 21.2353C159.942 22.6077 157.796 24.2352 155.852 26.087C153.852 27.9754 152.057 30.0695 150.496 32.3347C148.972 34.5272 147.729 36.9028 146.797 39.4056L74.6316 237.958C73.4319 241.223 72.6524 244.627 72.312 248.088C71.9962 251.162 72.1453 254.265 72.7543 257.294C73.2626 259.925 74.3243 262.419 75.869 264.609C77.2856 266.6 79.2816 268.106 81.5849 268.921L154.459 294.017C157.696 295.119 161.171 295.326 164.516 294.616C168.092 293.836 171.455 292.287 174.372 290.076C177.647 287.614 180.463 284.595 182.692 281.156C185.16 277.378 187.005 273.228 188.154 268.863L237.011 85.4419L238.544 85.319L246.219 56.3667Z" fill="#111111"/>
<path d="M233.023 1.57227C235.528 0.950751 238.132 0.834404 240.683 1.22949C242.69 1.5403 244.57 2.40962 246.106 3.73926V3.74023C247.554 5.0583 248.55 6.79767 248.955 8.71289V8.71387C249.438 11.1571 249.324 13.6809 248.622 16.0703L248.618 16.083L248.615 16.0947L238.467 54.1963L238.083 55.6377L239.562 55.4453L239.598 55.4404L232.486 82.2686L231.659 82.3359L230.955 82.3926L230.772 83.0752L181.916 266.497L181.915 266.499C180.793 270.76 178.993 274.812 176.583 278.5L176.581 278.503C174.416 281.843 171.68 284.776 168.499 287.167L168.496 287.17C165.695 289.294 162.465 290.78 159.031 291.528C156.062 292.158 152.985 292.026 150.087 291.146L149.509 290.961L76.6387 265.866C74.6644 265.165 72.9371 263.911 71.6611 262.256L71.4121 261.92C69.9502 259.846 68.9451 257.485 68.4639 254.994L68.4629 254.987L68.3574 254.437C67.8573 251.681 67.7487 248.868 68.0352 246.081V246.077C68.3673 242.7 69.1274 239.378 70.2979 236.193L70.2998 236.19L142.462 37.6445L142.463 37.6455C143.365 35.2213 144.568 32.9196 146.045 30.7959L146.048 30.793C147.569 28.5857 149.318 26.5451 151.267 24.7051L151.27 24.7021C153.159 22.902 155.245 21.3195 157.488 19.9854L157.493 19.9824C159.527 18.7556 161.737 17.8454 164.045 17.2852L233.005 1.57715L233.014 1.57422L233.023 1.57227Z" fill="#0D0D0D" stroke="#BDFF32" stroke-width="2"/>
<path d="M232.172 5.57307L222.034 7.79486C222.144 8.67232 222.057 9.56346 221.778 10.4027C221.462 11.3843 221.004 12.3143 220.418 13.1629C219.1 15.0895 217.341 16.6732 215.287 17.7821C215.041 17.9129 214.795 18.0336 214.551 18.1444C214.307 18.2551 214.063 18.3557 213.818 18.446C213.575 18.5364 213.333 18.6162 213.093 18.6855C212.853 18.7547 212.616 18.8131 212.382 18.8605L172.742 26.8897C172.006 27.0606 171.24 27.0519 170.509 26.8644C169.92 26.7063 169.401 26.3563 169.033 25.8697C168.662 25.3473 168.453 24.7276 168.431 24.0873C168.4 23.2705 168.529 22.4556 168.811 21.6883C168.881 21.4812 168.961 21.2727 169.051 21.0628C169.141 20.8529 169.239 20.643 169.345 20.4331C169.451 20.2222 169.566 20.0123 169.691 19.8035C169.815 19.5946 169.947 19.386 170.086 19.1775L162.58 20.8223C160.772 21.2464 159.041 21.9473 157.447 22.9002C155.706 23.9264 154.086 25.1471 152.62 26.539C151.109 27.961 149.753 29.54 148.576 31.2494C147.429 32.9012 146.496 34.6922 145.801 36.5795L73.7706 236.857C72.8747 239.318 72.2995 241.884 72.0593 244.492C71.8371 246.795 71.9682 249.117 72.4478 251.38C72.8472 253.335 73.663 255.182 74.8397 256.794C75.9183 258.256 77.422 259.349 79.1454 259.924L152.555 283.78C154.977 284.557 157.563 284.673 160.045 284.116C162.688 283.511 165.17 282.346 167.325 280.7C169.735 278.874 171.81 276.643 173.458 274.108C175.28 271.322 176.648 268.264 177.51 265.048L244.584 17.4604C245.146 15.5704 245.251 13.5735 244.888 11.6351C244.573 10.0467 243.77 8.59628 242.591 7.48636C241.355 6.37666 239.83 5.64122 238.192 5.36582C236.192 5.02983 234.145 5.10032 232.172 5.57307Z" fill="white"/>
<path d="M192.804 100.427H46.772V50.9258H192.804V100.427Z" fill="white"/>
<path d="M150.11 117.898H6.98926V187.297H150.11V117.898Z" fill="white"/>
<path d="M30.4783 131.996C35.6431 131.996 39.8307 136.184 39.8308 141.351C39.8308 146.518 35.6432 150.707 30.4783 150.708C25.3133 150.708 21.1257 146.518 21.1257 141.351C21.1259 136.184 25.3134 131.996 30.4783 131.996Z" fill="#BDFF32" fill-opacity="0.2" stroke="#BDFF32" stroke-width="2"/>
<path d="M54.1495 133.964C53.6919 133.964 53.253 134.146 52.9294 134.47C52.6058 134.793 52.4241 135.232 52.4241 135.69C52.4241 136.148 52.6058 136.587 52.9294 136.91C53.253 137.234 53.6919 137.416 54.1495 137.416H135.49C135.947 137.415 136.385 137.233 136.708 136.909C137.03 136.585 137.212 136.147 137.212 135.69C137.212 135.233 137.03 134.795 136.708 134.471C136.385 134.148 135.947 133.965 135.49 133.964H54.1495Z" fill="#EBEBEC"/>
<path d="M54.1495 144.32C53.9227 144.319 53.698 144.363 53.4882 144.449C53.2784 144.535 53.0877 144.662 52.9269 144.822C52.7661 144.982 52.6384 145.172 52.5511 145.381C52.4639 145.591 52.4187 145.815 52.4182 146.042C52.4177 146.269 52.4619 146.494 52.5483 146.703C52.6348 146.913 52.7616 147.104 52.9218 147.264C53.0819 147.425 53.2721 147.553 53.4815 147.64C53.6909 147.727 53.9154 147.772 54.1422 147.772H89.1507C89.3773 147.772 89.6017 147.727 89.811 147.64C90.0203 147.554 90.2105 147.426 90.3708 147.266C90.531 147.106 90.6581 146.916 90.7448 146.706C90.8315 146.497 90.8761 146.272 90.8761 146.046C90.8761 145.819 90.8315 145.595 90.7448 145.385C90.6581 145.176 90.531 144.986 90.3708 144.825C90.2105 144.665 90.0203 144.538 89.811 144.451C89.6017 144.364 89.3773 144.32 89.1507 144.32H54.1495Z" fill="#EBEBEC"/>
<path d="M22.2995 160.876C20.987 160.876 19.9189 161.65 19.9189 162.602C19.9189 163.553 20.987 164.328 22.2995 164.328H134.525C135.837 164.328 136.905 163.553 136.905 162.602C136.905 161.65 135.837 160.876 134.525 160.876H22.2995Z" fill="#EBEBEC"/>
<path d="M22.2995 171.231C20.987 171.231 19.9189 172.006 19.9189 172.957C19.9189 173.909 20.987 174.683 22.2995 174.683H108.692C110.005 174.683 111.073 173.909 111.073 172.957C111.073 172.006 110.005 171.231 108.692 171.231H22.2995Z" fill="#EBEBEC"/>
<path d="M151.216 116.792V188.403H5.88354V116.792H151.216ZM8.09448 186.191H149.005V119.004H8.09448V186.191Z" fill="#EBEBEC" stroke="#0D0D0D" stroke-width="0.7"/>
<path d="M71.4783 65.9956C76.6431 65.9956 80.8307 70.1839 80.8308 75.3511C80.8308 80.5184 76.6432 84.7075 71.4783 84.7075C66.3133 84.7075 62.1257 80.5184 62.1257 75.3511C62.1259 70.1839 66.3134 65.9956 71.4783 65.9956Z" fill="#BDFF32" fill-opacity="0.2" stroke="#BDFF32" stroke-width="2"/>
<path d="M95.3875 68.4475C94.9299 68.4475 94.491 68.6294 94.1675 68.953C93.8439 69.2767 93.6621 69.7157 93.6621 70.1735C93.6621 70.6312 93.8439 71.0702 94.1675 71.3939C94.491 71.7176 94.9299 71.8994 95.3875 71.8994H176.728C177.185 71.8983 177.623 71.716 177.946 71.3924C178.268 71.0688 178.45 70.6305 178.45 70.1735C178.45 69.7165 178.268 69.2781 177.946 68.9545C177.623 68.631 177.185 68.4486 176.728 68.4475H95.3875Z" fill="#EBEBEC"/>
<path d="M95.3875 78.8032C95.1607 78.8025 94.9361 78.8464 94.7263 78.9326C94.5165 79.0187 94.3258 79.1454 94.165 79.3054C94.0042 79.4654 93.8765 79.6555 93.7892 79.8648C93.7019 80.0742 93.6567 80.2987 93.6563 80.5255C93.6558 80.7524 93.7 80.9771 93.7864 81.1868C93.8728 81.3966 93.9997 81.5872 94.1598 81.7478C94.32 81.9085 94.5101 82.036 94.7195 82.123C94.9289 82.21 95.1535 82.255 95.3802 82.2551H159.385C159.842 82.2551 160.281 82.0733 160.605 81.7496C160.928 81.4259 161.11 80.9869 161.11 80.5292C161.11 80.0714 160.928 79.6324 160.605 79.3088C160.281 78.9851 159.842 78.8032 159.385 78.8032H95.3875Z" fill="#EBEBEC"/>
<path d="M192.454 51.2754V100.077H47.1216V51.2754H192.454ZM49.3325 97.8652H190.243V53.4873H49.3325V97.8652Z" fill="#EBEBEC" stroke="#0D0D0D" stroke-width="0.7"/>
<path d="M248.21 135.774C248.633 135.758 249.054 135.83 249.448 135.985C249.821 136.135 250.16 136.36 250.443 136.647C250.726 136.936 250.948 137.28 251.093 137.657C251.247 138.057 251.317 138.485 251.299 138.913C251.282 139.353 251.18 139.785 250.998 140.185C250.82 140.578 250.573 140.936 250.268 141.24C249.965 141.543 249.61 141.788 249.219 141.964C248.822 142.142 248.394 142.24 247.96 142.252C247.536 142.264 247.115 142.189 246.723 142.03C246.351 141.878 246.014 141.65 245.734 141.362C245.453 141.073 245.234 140.729 245.091 140.352C244.94 139.953 244.872 139.528 244.891 139.102C244.908 138.664 245.01 138.235 245.191 137.836C245.367 137.447 245.612 137.093 245.914 136.791C246.215 136.488 246.568 136.243 246.956 136.067C247.351 135.888 247.777 135.789 248.21 135.774Z" fill="#F2F2F2"/>
</svg>
